<?xml version="1.0" encoding="utf-8"?><svg xmlns="http://www.w3.org/2000/svg" xmlns:xlink="http://www.w3.org/1999/xlink"><symbol viewBox="0 0 172 108" id="2x"><path class="ast0" d="M50 27c-1.7 0-3 1.3-3 3s1.3 3 3 3 3-1.3 3-3-1.3-3-3-3zm0 5c-1.1 0-2-.9-2-2s.9-2 2-2 2 .9 2 2-.9 2-2 2z"/><path class="ast0" d="M84 0H24c-5.5 0-10 4.5-10 10v29h12c5 0 9 4 9 9v10H16c-.3 0-.7.1-1 .3-.3.2-.6.4-.8.8.2.3.5.6.8.8.1-.4.5-.8 1-.8h69.7c.2-.3.3-.6.3-1V2c0-1.1-.9-2-2-2zM36 58V48c0-5.5-4.5-10-10-10H15V10c0-5 4-9 9-9h60c.5 0 1 .5 1 1v56H36z"/><path class="ast1" d="M84 0H24c-5.5 0-10 4.5-10 10v29h1V10c0-5 4-9 9-9h60c.5 0 1 .5 1 1v56c0 .5-.5 1-1 1h1.7c.2-.3.3-.6.3-1V2c0-1.1-.9-2-2-2zM15 58.3c-.3.2-.6.4-.8.8.2.3.5.6.8.8.1-.4.5-.8 1-.8-.5-.1-.9-.4-1-.8z"/><path class="ast0" d="M124.4 28.2c-.1-.1-.2-.2-.2-.3-.1-.2-.3-.3-.5-.4 0 0-.1-.1-.2-.1s-.1-.1-.2-.1-.1-.1-.2-.1-.1 0-.2-.1c-.1 0-.1 0-.2-.1h-.1c-.1 0-.2 0-.3-.1h-.3c-.6 0-1.3.2-1.8.6-1.3 1-1.6 2.9-.6 4.2.1.1.1.2.2.3.1.2.3.3.5.4.1 0 .1.1.2.1 0 0 .1.1.2.1s.2.1.2.1c.1.1.3.1.4.1h.7c.6 0 1.3-.2 1.8-.6 1.3-.8 1.6-2.7.6-4zm-1.2 3.4c-.3.3-.8.4-1.2.4-.6 0-1.2-.3-1.6-.8-.7-.9-.5-2.1.4-2.8.4-.3.8-.4 1.2-.4.6 0 1.2.3 1.6.8.7.9.5 2.1-.4 2.8z"/><path class="ast0" d="M148 0H88c-1.1 0-2 .9-2 2v57h70c.5 0 1 .5 1 1v11.7s.1-.1.2-.1l.1-.1.1-.1.2-.2c0-.1.1-.1.1-.2s.1-.2.1-.2c.1-.2.2-.5.2-.8V60c0-.7-.4-1.4-1-1.7-.3-.2-.6-.3-1-.3h-19V48c0-5 4-9 9-9h12V10c0-5.5-4.5-10-10-10zm-2 38c-5.5 0-10 4.5-10 10v10H87V2c0-.5.5-1 1-1h60c5 0 9 4 9 9v28h-11z"/><path class="ast1" d="M148 0H88c-1.1 0-2 .9-2 2v57h1V2c0-.5.5-1 1-1h60c5 0 9 4 9 9v29h1V10c0-5.5-4.5-10-10-10zm9 58.3v13.5s.1-.1.2-.1l.1-.1.1-.1.2-.2c0-.1.1-.1.1-.2s.1-.2.1-.2c.1-.2.2-.5.2-.8V60c0-.7-.4-1.4-1-1.7z"/><path class="ast0" d="M170 38h-24c-5.5 0-10 4.5-10 10v11h20c.5 0 1 .5 1 1v14c0 .5-.5 1-1 1h-19.7s.1.1.1.2l.1.1c0 .1.1.1.1.1l.2.2c.1.1.1.1.2.1s.2.1.2.1c.2.1.5.2.8.2h32c1.1 0 2-.9 2-2V40c0-1.1-.9-2-2-2zm1 36c0 .5-.5 1-1 1h-12.3c.2-.3.3-.6.3-1V60c0-.7-.4-1.4-1-1.7-.3-.2-.6-.3-1-.3h-19V48c0-5 4-9 9-9h24c.5 0 1 .5 1 1v34z"/><path class="ast1" d="M170 38h-24c-5.5 0-10 4.5-10 10v11h1V48c0-5 4-9 9-9h24c.5 0 1 .5 1 1v34c0 .5-.5 1-1 1h-33.7s.1.1.1.2l.1.1c0 .1.1.1.1.1l.2.2c.1.1.1.1.2.1s.2.1.2.1c.2.1.5.2.8.2h32c1.1 0 2-.9 2-2V40c0-1.1-.9-2-2-2z"/><path class="ast0" d="M26 38H2c-1.1 0-2 .9-2 2v34c0 1.1.9 2 2 2h32c.7 0 1.4-.4 1.7-1H16c-.5 0-1-.5-1-1V59.7c.1-.4.5-.8 1-.8h20V48c0-5.5-4.5-10-10-10zM16 58c-.3 0-.7.1-1 .3-.3.2-.6.4-.8.8-.2.3-.3.6-.3 1v14c0 .4.1.7.3 1H2c-.5 0-1-.5-1-1V40c0-.5.5-1 1-1h24c5 0 9 4 9 9v10H16z"/><path class="ast1" d="M26 38H2c-1.1 0-2 .9-2 2v34c0 1.1.9 2 2 2h32c.7 0 1.4-.4 1.7-1H2c-.5 0-1-.5-1-1V40c0-.5.5-1 1-1h24c5 0 9 4 9 9v11h1V48c0-5.5-4.5-10-10-10z"/><path class="ast0" d="M157 58.3c-.3-.2-.6-.3-1-.3H16c-.3 0-.7.1-1 .3-.3.2-.6.4-.8.8-.2.3-.3.6-.3 1v14c0 .4.1.7.3 1 .3.6 1 1 1.7 1h140c.7 0 1.4-.4 1.7-1 .2-.3.3-.6.3-1V60c.1-.7-.3-1.4-.9-1.7zM16 75c-.5 0-1-.5-1-1V59.7c.1-.4.5-.8 1-.8h140c.5 0 1 .5 1 1v14c0 .5-.5 1-1 1H16z"/><path class="ast1" d="M157 58.3c-.3-.2-.6-.3-1-.3H16c-.3 0-.7.1-1 .3-.3.2-.6.4-.8.8-.2.3-.3.6-.3 1v14c0 .4.1.7.3 1 .3.6 1 1 1.7 1h140c.7 0 1.4-.4 1.7-1 .2-.3.3-.6.3-1V60c.1-.7-.3-1.4-.9-1.7zM16 75c-.5 0-1-.5-1-1V59.7c.1-.4.5-.8 1-.8h140c.5 0 1 .5 1 1v14c0 .5-.5 1-1 1H16z"/><path class="ast0" d="M9.8 93l-.3 1-2.9 11.5c-.3 1.3.6 2.5 1.9 2.5h7.9c.9 0 1.7-.6 1.9-1.5L21.5 94l.3-1h-12zm7.6 13.2c-.1.5-.5.8-1 .8H8.6c-.3 0-.6-.1-.8-.4-.2-.3-.3-.6-.2-.9L10.5 94h9.9l-3 12.2z"/><path class="ast1" d="M20.7 93l-3.3 13.2c-.1.5-.5.8-1 .8H8.6c-.3 0-.6-.1-.8-.4-.2-.3-.3-.6-.2-.9L10.8 93h-1l-.3 1-2.9 11.5c-.3 1.3.6 2.5 1.9 2.5h7.9c.9 0 1.7-.6 1.9-1.5L21.5 94l.3-1h-1.1z"/><path class="ast0" d="M165.9 105.5L163.1 94l-.3-1h-12l.3 1 3.1 12.5c.2.9 1 1.5 1.9 1.5h7.9c1.3 0 2.3-1.2 1.9-2.5zm-1.1 1.1c-.2.2-.5.4-.8.4h-7.9c-.5 0-.9-.3-1-.8l-3-12.2h9.9l2.9 11.8c.1.3.1.6-.1.8z"/><path class="ast1" d="M165.9 105.5L163.1 94l-.3-1h-1l3.2 12.8c.1.3 0 .6-.2.9-.2.2-.5.4-.8.4h-7.9c-.5 0-.9-.3-1-.8L151.8 93h-1l.3 1 3.1 12.5c.2.9 1 1.5 1.9 1.5h7.9c1.3 0 2.3-1.2 1.9-2.5z"/><g><path class="ast0" d="M170 76H2c-1.1 0-2 .9-2 2v14c0 1.1.9 2 2 2h168c1.1 0 2-.9 2-2V78c0-1.1-.9-2-2-2zm1 16c0 .5-.5 1-1 1H2c-.5 0-1-.5-1-1V78c0-.5.5-1 1-1h168c.5 0 1 .5 1 1v14z"/><path class="ast1" d="M170 76H2c-1.1 0-2 .9-2 2v14c0 1.1.9 2 2 2h168c1.1 0 2-.9 2-2V78c0-1.1-.9-2-2-2zm1 16c0 .5-.5 1-1 1H2c-.5 0-1-.5-1-1V78c0-.5.5-1 1-1h168c.5 0 1 .5 1 1v14z"/></g><g><path class="ast0" d="M50 27c-1.7 0-3 1.3-3 3s1.3 3 3 3 3-1.3 3-3-1.3-3-3-3zm0 5c-1.1 0-2-.9-2-2s.9-2 2-2 2 .9 2 2-.9 2-2 2z"/><path class="ast1" d="M50 27c-1.7 0-3 1.3-3 3s1.3 3 3 3 3-1.3 3-3-1.3-3-3-3zm0 5c-1.1 0-2-.9-2-2s.9-2 2-2 2 .9 2 2-.9 2-2 2z"/></g><g><path class="ast0" d="M124.4 28.2c-.1-.1-.2-.2-.2-.3-.1-.2-.3-.3-.5-.4 0 0-.1-.1-.2-.1s-.1-.1-.2-.1-.1-.1-.2-.1-.1 0-.2-.1c-.1 0-.1 0-.2-.1h-.1c-.1 0-.2 0-.3-.1h-.3c-.6 0-1.3.2-1.8.6-1.3 1-1.6 2.9-.6 4.2.1.1.1.2.2.3.1.2.3.3.5.4.1 0 .1.1.2.1 0 0 .1.1.2.1s.2.1.2.1c.1.1.3.1.4.1h.7c.6 0 1.3-.2 1.8-.6 1.3-.8 1.6-2.7.6-4zm-1.2 3.4c-.3.3-.8.4-1.2.4-.6 0-1.2-.3-1.6-.8-.7-.9-.5-2.1.4-2.8.4-.3.8-.4 1.2-.4.6 0 1.2.3 1.6.8.7.9.5 2.1-.4 2.8z"/><path class="ast1" d="M124.4 28.2c-.1-.1-.2-.2-.2-.3-.1-.2-.3-.3-.5-.4 0 0-.1-.1-.2-.1s-.1-.1-.2-.1-.1-.1-.2-.1-.1 0-.2-.1c-.1 0-.1 0-.2-.1h-.1c-.1 0-.2 0-.3-.1h-.3c-.6 0-1.3.2-1.8.6-1.3 1-1.6 2.9-.6 4.2.1.1.1.2.2.3.1.2.3.3.5.4.1 0 .1.1.2.1 0 0 .1.1.2.1s.2.1.2.1c.1.1.3.1.4.1h.7c.6 0 1.3-.2 1.8-.6 1.3-.8 1.6-2.7.6-4zm-1.2 3.4c-.3.3-.8.4-1.2.4-.6 0-1.2-.3-1.6-.8-.7-.9-.5-2.1.4-2.8.4-.3.8-.4 1.2-.4.6 0 1.2.3 1.6.8.7.9.5 2.1-.4 2.8z"/></g></symbol><symbol viewBox="0 0 244 108" id="3x"><path class="bst0" d="M50 27c-1.7 0-3 1.3-3 3s1.3 3 3 3 3-1.3 3-3-1.3-3-3-3zm0 5c-1.1 0-2-.9-2-2s.9-2 2-2 2 .9 2 2-.9 2-2 2z"/><path class="bst0" d="M84 0H24c-5.5 0-10 4.5-10 10v29h12c5 0 9 4 9 9v10H16c-.3 0-.7.1-1 .3-.3.2-.6.4-.8.8.2.3.5.6.8.8.1-.4.5-.8 1-.8h69.7c.2-.3.3-.6.3-1V2c0-1.1-.9-2-2-2zM36 58V48c0-5.5-4.5-10-10-10H15V10c0-5 4-9 9-9h60c.5 0 1 .5 1 1v56H36z"/><path class="bst1" d="M15 58.3c-.3.2-.6.4-.8.8.2.3.5.6.8.8.1-.4.5-.8 1-.8-.5-.1-.9-.4-1-.8zM84 0H24c-5.5 0-10 4.5-10 10v29h1V10c0-5 4-9 9-9h60c.5 0 1 .5 1 1v56c0 .5-.5 1-1 1h1.7c.2-.3.3-.6.3-1V2c0-1.1-.9-2-2-2z"/><path class="bst0" d="M124.4 28.2c-.1-.1-.2-.2-.2-.3-.1-.2-.3-.3-.5-.4-.1-.1-.2-.1-.3-.2-.1 0-.1-.1-.2-.1-.3-.1-.5-.2-.8-.2h-.3c-.6 0-1.3.2-1.8.6-1.3 1-1.6 2.9-.6 4.2.1.1.1.2.2.3.1.2.3.3.5.4.1.1.2.1.3.2.1 0 .2.1.2.1.3.1.5.2.8.2h.3c.6 0 1.3-.2 1.8-.6 1.3-1 1.6-2.9.6-4.2zm-1.2 3.4c-.3.3-.8.4-1.2.4-.6 0-1.2-.3-1.6-.8-.3-.4-.5-1-.4-1.5.1-.5.3-1 .8-1.3.4-.3.8-.4 1.2-.4.6 0 1.2.3 1.6.8.7.9.5 2.1-.4 2.8z"/><path class="bst0" d="M156 0H88c-1.1 0-2 .9-2 2v57h72V2c0-1.1-.9-2-2-2zM87 58V2c0-.5.5-1 1-1h68c.5 0 1 .5 1 1v56H87z"/><path class="bst1" d="M156 0H88c-1.1 0-2 .9-2 2v57h1V2c0-.5.5-1 1-1h68c.5 0 1 .5 1 1v57h1V2c0-1.1-.9-2-2-2z"/><path class="bst0" d="M196.4 28.2c-.1-.1-.2-.2-.2-.3-.1-.2-.3-.3-.5-.4 0 0-.1-.1-.2-.1s-.1-.1-.2-.1-.1-.1-.2-.1-.1 0-.2-.1c-.1 0-.1 0-.2-.1h-.1c-.1 0-.2 0-.3-.1h-.3c-.6 0-1.3.2-1.8.6-1.3 1-1.6 2.9-.6 4.2.1.1.1.2.2.3.1.2.3.3.5.4.1 0 .1.1.2.1 0 0 .1.1.2.1s.2.1.2.1c.1.1.3.1.4.1h.7c.6 0 1.3-.2 1.8-.6 1.3-.8 1.6-2.7.6-4zm-1.2 3.4c-.3.3-.8.4-1.2.4-.6 0-1.2-.3-1.6-.8-.7-.9-.5-2.1.4-2.8.4-.3.8-.4 1.2-.4.6 0 1.2.3 1.6.8.7.9.5 2.1-.4 2.8z"/><path class="bst0" d="M220 0h-60c-1.1 0-2 .9-2 2v57h70c.5 0 1 .5 1 1v11.7s.1-.1.2-.1l.1-.1.1-.1.2-.2c0-.1.1-.1.1-.2s.1-.2.1-.2c.1-.2.2-.5.2-.8V60c0-.7-.4-1.4-1-1.7-.3-.2-.6-.3-1-.3h-19V48c0-5 4-9 9-9h12V10c0-5.5-4.5-10-10-10zm-2 38c-5.5 0-10 4.5-10 10v10h-49V2c0-.5.5-1 1-1h60c5 0 9 4 9 9v28h-11z"/><path class="bst1" d="M220 0h-60c-1.1 0-2 .9-2 2v57h1V2c0-.5.5-1 1-1h60c5 0 9 4 9 9v29h1V10c0-5.5-4.5-10-10-10zm9 58.3v13.5s.1-.1.2-.1l.1-.1.1-.1.2-.2c0-.1.1-.1.1-.2s.1-.2.1-.2c.1-.2.2-.5.2-.8V60c0-.7-.4-1.4-1-1.7z"/><path class="bst0" d="M242 38h-24c-5.5 0-10 4.5-10 10v11h20c.5 0 1 .5 1 1v14c0 .5-.5 1-1 1h-19.7s.1.1.1.2l.1.1c0 .1.1.1.1.1l.2.2c.1.1.1.1.2.1s.2.1.2.1c.2.1.5.2.8.2h32c1.1 0 2-.9 2-2V40c0-1.1-.9-2-2-2zm1 36c0 .5-.5 1-1 1h-12.3c.2-.3.3-.6.3-1V60c0-.7-.4-1.4-1-1.7-.3-.2-.6-.3-1-.3h-19V48c0-5 4-9 9-9h24c.5 0 1 .5 1 1v34z"/><path class="bst1" d="M242 38h-24c-5.5 0-10 4.5-10 10v11h1V48c0-5 4-9 9-9h24c.5 0 1 .5 1 1v34c0 .5-.5 1-1 1h-33.7s.1.1.1.2l.1.1c0 .1.1.1.1.1l.2.2c.1.1.1.1.2.1s.2.1.2.1c.2.1.5.2.8.2h32c1.1 0 2-.9 2-2V40c0-1.1-.9-2-2-2z"/><path class="bst0" d="M26 38H2c-1.1 0-2 .9-2 2v34c0 1.1.9 2 2 2h32c.7 0 1.4-.4 1.7-1H16c-.5 0-1-.5-1-1V59.7c.1-.4.5-.8 1-.8h20V48c0-5.5-4.5-10-10-10zM16 58c-.3 0-.7.1-1 .3-.3.2-.6.4-.8.8-.2.3-.3.6-.3 1v14c0 .4.1.7.3 1H2c-.5 0-1-.5-1-1V40c0-.5.5-1 1-1h24c5 0 9 4 9 9v10H16z"/><path class="bst1" d="M26 38H2c-1.1 0-2 .9-2 2v34c0 1.1.9 2 2 2h32c.7 0 1.4-.4 1.7-1H2c-.5 0-1-.5-1-1V40c0-.5.5-1 1-1h24c5 0 9 4 9 9v11h1V48c0-5.5-4.5-10-10-10z"/><path class="bst0" d="M229 58.3c-.3-.2-.6-.3-1-.3H16c-.3 0-.7.1-1 .3-.3.2-.6.4-.8.8-.2.3-.3.6-.3 1v14c0 .4.1.7.3 1 .3.6 1 1 1.7 1h212c.7 0 1.4-.4 1.7-1 .2-.3.3-.6.3-1V60c.1-.7-.3-1.4-.9-1.7zM16 75c-.5 0-1-.5-1-1V59.7c.1-.4.5-.8 1-.8h212c.5 0 1 .5 1 1v14c0 .5-.5 1-1 1H16z"/><path class="bst1" d="M229 58.3c-.3-.2-.6-.3-1-.3H16c-.3 0-.7.1-1 .3-.3.2-.6.4-.8.8-.2.3-.3.6-.3 1v14c0 .4.1.7.3 1 .3.6 1 1 1.7 1h212c.7 0 1.4-.4 1.7-1 .2-.3.3-.6.3-1V60c.1-.7-.3-1.4-.9-1.7zM16 75c-.5 0-1-.5-1-1V59.7c.1-.4.5-.8 1-.8h212c.5 0 1 .5 1 1v14c0 .5-.5 1-1 1H16z"/><path class="bst0" d="M9.8 93l-.3 1-2.9 11.5c-.3 1.3.6 2.5 1.9 2.5h7.9c.9 0 1.7-.6 1.9-1.5L21.5 94l.3-1h-12zm7.6 13.2c-.1.5-.5.8-1 .8H8.6c-.3 0-.6-.1-.8-.4-.2-.3-.3-.6-.2-.9L10.5 94h9.9l-3 12.2z"/><path class="bst1" d="M20.7 93l-3.3 13.2c-.1.5-.5.8-1 .8H8.6c-.3 0-.6-.1-.8-.4-.2-.3-.3-.6-.2-.9L10.8 93h-1l-.3 1-2.9 11.5c-.3 1.3.6 2.5 1.9 2.5h7.9c.9 0 1.7-.6 1.9-1.5L21.5 94l.3-1h-1.1z"/><path class="bst0" d="M237.9 105.5L235.1 94l-.3-1h-12l.3 1 3.1 12.5c.2.9 1 1.5 1.9 1.5h7.9c1.3 0 2.3-1.2 1.9-2.5zm-1.1 1.1c-.2.2-.5.4-.8.4h-7.9c-.5 0-.9-.3-1-.8l-3-12.2h9.9l2.9 11.8c.1.3.1.6-.1.8z"/><path class="bst1" d="M237.9 105.5L235.1 94l-.3-1h-1l3.2 12.8c.1.3 0 .6-.2.9-.2.2-.5.4-.8.4h-7.9c-.5 0-.9-.3-1-.8L223.8 93h-1l.3 1 3.1 12.5c.2.9 1 1.5 1.9 1.5h7.9c1.3 0 2.3-1.2 1.9-2.5z"/><path class="bst0" d="M242 76H2c-1.1 0-2 .9-2 2v14c0 1.1.9 2 2 2h240c1.1 0 2-.9 2-2V78c0-1.1-.9-2-2-2zm1 16c0 .5-.5 1-1 1H2c-.5 0-1-.5-1-1V78c0-.5.5-1 1-1h240c.5 0 1 .5 1 1v14z"/><path class="bst1" d="M242 76H2c-1.1 0-2 .9-2 2v14c0 1.1.9 2 2 2h240c1.1 0 2-.9 2-2V78c0-1.1-.9-2-2-2zm1 16c0 .5-.5 1-1 1H2c-.5 0-1-.5-1-1V78c0-.5.5-1 1-1h240c.5 0 1 .5 1 1v14z"/><g><path class="bst0" d="M50 27c-1.7 0-3 1.3-3 3s1.3 3 3 3 3-1.3 3-3-1.3-3-3-3zm0 5c-1.1 0-2-.9-2-2s.9-2 2-2 2 .9 2 2-.9 2-2 2z"/><path class="bst1" d="M50 27c-1.7 0-3 1.3-3 3s1.3 3 3 3 3-1.3 3-3-1.3-3-3-3zm0 5c-1.1 0-2-.9-2-2s.9-2 2-2 2 .9 2 2-.9 2-2 2z"/></g><g><path class="bst0" d="M124.4 28.2c-.1-.1-.2-.2-.2-.3-.1-.2-.3-.3-.5-.4-.1-.1-.2-.1-.3-.2-.1 0-.1-.1-.2-.1-.3-.1-.5-.2-.8-.2h-.3c-.6 0-1.3.2-1.8.6-1.3 1-1.6 2.9-.6 4.2.1.1.1.2.2.3.1.2.3.3.5.4.1.1.2.1.3.2.1 0 .2.1.2.1.3.1.5.2.8.2h.3c.6 0 1.3-.2 1.8-.6 1.3-1 1.6-2.9.6-4.2zm-1.2 3.4c-.3.3-.8.4-1.2.4-.6 0-1.2-.3-1.6-.8-.3-.4-.5-1-.4-1.5.1-.5.3-1 .8-1.3.4-.3.8-.4 1.2-.4.6 0 1.2.3 1.6.8.7.9.5 2.1-.4 2.8z"/><path class="bst1" d="M124.4 28.2c-.1-.1-.2-.2-.2-.3-.1-.2-.3-.3-.5-.4-.1-.1-.2-.1-.3-.2-.1 0-.1-.1-.2-.1-.3-.1-.5-.2-.8-.2h-.3c-.6 0-1.3.2-1.8.6-1.3 1-1.6 2.9-.6 4.2.1.1.1.2.2.3.1.2.3.3.5.4.1.1.2.1.3.2.1 0 .2.1.2.1.3.1.5.2.8.2h.3c.6 0 1.3-.2 1.8-.6 1.3-1 1.6-2.9.6-4.2zm-1.2 3.4c-.3.3-.8.4-1.2.4-.6 0-1.2-.3-1.6-.8-.3-.4-.5-1-.4-1.5.1-.5.3-1 .8-1.3.4-.3.8-.4 1.2-.4.6 0 1.2.3 1.6.8.7.9.5 2.1-.4 2.8z"/></g><g><path class="bst0" d="M196.4 28.2c-.1-.1-.2-.2-.2-.3-.1-.2-.3-.3-.5-.4 0 0-.1-.1-.2-.1s-.1-.1-.2-.1-.1-.1-.2-.1-.1 0-.2-.1c-.1 0-.1 0-.2-.1h-.1c-.1 0-.2 0-.3-.1h-.3c-.6 0-1.3.2-1.8.6-1.3 1-1.6 2.9-.6 4.2.1.1.1.2.2.3.1.2.3.3.5.4.1 0 .1.1.2.1 0 0 .1.1.2.1s.2.1.2.1c.1.1.3.1.4.1h.7c.6 0 1.3-.2 1.8-.6 1.3-.8 1.6-2.7.6-4zm-1.2 3.4c-.3.3-.8.4-1.2.4-.6 0-1.2-.3-1.6-.8-.7-.9-.5-2.1.4-2.8.4-.3.8-.4 1.2-.4.6 0 1.2.3 1.6.8.7.9.5 2.1-.4 2.8z"/><path class="bst1" d="M196.4 28.2c-.1-.1-.2-.2-.2-.3-.1-.2-.3-.3-.5-.4 0 0-.1-.1-.2-.1s-.1-.1-.2-.1-.1-.1-.2-.1-.1 0-.2-.1c-.1 0-.1 0-.2-.1h-.1c-.1 0-.2 0-.3-.1h-.3c-.6 0-1.3.2-1.8.6-1.3 1-1.6 2.9-.6 4.2.1.1.1.2.2.3.1.2.3.3.5.4.1 0 .1.1.2.1 0 0 .1.1.2.1s.2.1.2.1c.1.1.3.1.4.1h.7c.6 0 1.3-.2 1.8-.6 1.3-.8 1.6-2.7.6-4zm-1.2 3.4c-.3.3-.8.4-1.2.4-.6 0-1.2-.3-1.6-.8-.7-.9-.5-2.1.4-2.8.4-.3.8-.4 1.2-.4.6 0 1.2.3 1.6.8.7.9.5 2.1-.4 2.8z"/></g></symbol><symbol viewBox="0 0 14.813 24" id="angle-right"><path class="ccls-1" d="M-.001 2.822l9.188 9.187L0 21.197l2.813 2.812 12-12-12-12z"/></symbol><symbol viewBox="0 0 244.1 108" id="anglechilr"><path class="dst0" d="M50 27c-1.7 0-3 1.3-3 3s1.3 3 3 3 3-1.3 3-3-1.3-3-3-3zm0 5c-1.1 0-2-.9-2-2s.9-2 2-2 2 .9 2 2-.9 2-2 2z"/><path class="dst0" d="M84 0H24c-5.5 0-10 4.5-10 10v29h12c5 0 9 4 9 9v10H15.3c-.1 0-.3.1-.4.2-.1.1-.2.1-.3.2-.1 0-.1.1-.1.1-.1.1-.1.2-.2.2 0 .1-.1.1-.1.2s.1.1.2.2c0 .1.1.1.2.2l.1.1c.1.1.2.2.3.2.1-.4.5-.8 1-.8h69.7c.2-.3.3-.6.3-1V2c0-1.1-.9-2-2-2zM36 58V48c0-5.5-4.5-10-10-10H15V10c0-5 4-9 9-9h60c.5 0 1 .5 1 1v56H36z"/><path class="dst1" d="M15 58.3c-.1.1-.2.1-.3.2-.1 0-.1.1-.1.1-.1.1-.1.2-.2.2 0 .1-.1.1-.1.2s.1.1.2.2c0 .1.1.1.2.2l.1.1c.1.1.2.2.3.2.1-.4.5-.8 1-.8-.6.1-1-.2-1.1-.6zM84 0H24c-5.5 0-10 4.5-10 10v29h1V10c0-5 4-9 9-9h60c.5 0 1 .5 1 1v56c0 .5-.5 1-1 1h1.7c.2-.3.3-.6.3-1V2c0-1.1-.9-2-2-2z"/><path class="dst0" d="M124.4 28.2c-.1-.1-.2-.2-.2-.3-.1-.1-.3-.3-.5-.4 0 0-.1-.1-.2-.1s-.1-.1-.2-.1c-.1-.1-.1-.1-.2-.1s-.1 0-.2-.1c-.1 0-.1 0-.2-.1h-.7c-.6 0-1.3.2-1.8.6-1.3 1-1.6 2.9-.6 4.2.1.1.1.2.2.3.1.1.3.3.5.4.1 0 .1.1.2.1 0 0 .1.1.2.1.1.1.2.1.2.1.1 0 .3.1.4.1h.7c.6 0 1.3-.2 1.8-.6 1.3-.9 1.6-2.8.6-4.1zm-1.2 3.4c-.3.3-.8.4-1.2.4-.6 0-1.2-.3-1.6-.8-.3-.4-.5-1-.4-1.5.1-.5.3-1 .8-1.3.4-.3.8-.4 1.2-.4.6 0 1.2.3 1.6.8.7.9.5 2.1-.4 2.8z"/><path class="dst0" d="M156 0H88c-1.1 0-2 .9-2 2v57h72V2c0-1.1-.9-2-2-2zM87 58V2c0-.5.5-1 1-1h68c.5 0 1 .5 1 1v56H87z"/><path class="dst1" d="M156 0H88c-1.1 0-2 .9-2 2v57h1V2c0-.5.5-1 1-1h68c.5 0 1 .5 1 1v57h1V2c0-1.1-.9-2-2-2z"/><path class="dst0" d="M196.4 28.2c-.1-.1-.2-.2-.2-.3-.1-.1-.3-.3-.5-.4 0 0-.1-.1-.2-.1s-.1-.1-.2-.1c-.1-.1-.1-.1-.2-.1s-.1 0-.2-.1c-.1 0-.1 0-.2-.1h-.7c-.6 0-1.3.2-1.8.6-1.3 1-1.6 2.9-.6 4.2.1.1.1.2.2.3.1.1.3.3.5.4.1 0 .1.1.2.1 0 0 .1.1.2.1.1.1.2.1.2.1.1 0 .3.1.4.1h.7c.6 0 1.3-.2 1.8-.6 1.3-.9 1.6-2.8.6-4.1zm-1.2 3.4c-.3.3-.8.4-1.2.4-.6 0-1.2-.3-1.6-.8-.7-.9-.5-2.1.4-2.8.4-.3.8-.4 1.2-.4.6 0 1.2.3 1.6.8.7.9.5 2.1-.4 2.8z"/><path class="dst0" d="M186 38c-5.5 0-10 4.5-10 10v10h1V48c0-5 4-9 9-9h35.8l.1-1H186zm0 0c-5.5 0-10 4.5-10 10v10h1V48c0-5 4-9 9-9h35.8l.1-1H186zm0 0c-5.5 0-10 4.5-10 10v10h1V48c0-5 4-9 9-9h35.8l.1-1H186zm0 0c-5.5 0-10 4.5-10 10v10h1V48c0-5 4-9 9-9h35.8l.1-1H186zm0 0c-5.5 0-10 4.5-10 10v10h1V48c0-5 4-9 9-9h35.8l.1-1H186zm0 0c-5.5 0-10 4.5-10 10v10h1V48c0-5 4-9 9-9h35.8l.1-1H186zm0 0c-5.5 0-10 4.5-10 10v10h1V48c0-5 4-9 9-9h35.8l.1-1H186zm0 0c-5.5 0-10 4.5-10 10v10h1V48c0-5 4-9 9-9h35.8l.1-1H186zm0 0c-5.5 0-10 4.5-10 10v10h1V48c0-5 4-9 9-9h35.8l.1-1H186zm0 0c-5.5 0-10 4.5-10 10v10h1V48c0-5 4-9 9-9h35.8l.1-1H186zm0 0c-5.5 0-10 4.5-10 10v10h1V48c0-5 4-9 9-9h35.8l.1-1H186zm0 0c-5.5 0-10 4.5-10 10v10h1V48c0-5 4-9 9-9h35.8l.1-1H186zm0 0c-5.5 0-10 4.5-10 10v10h1V48c0-5 4-9 9-9h35.8l.1-1H186zm0 0c-5.5 0-10 4.5-10 10v10h1V48c0-5 4-9 9-9h35.8l.1-1H186zm37 0l3.9-33.8.2-1.3c-.1-.1-.2-.2-.3-.2l-.3-.3c-.1-.1-.3-.2-.4-.3l-.9-.6c-.1-.1-.3-.2-.5-.3-.1-.1-.3-.2-.4-.2-.1-.1-.3-.1-.4-.2-.2-.1-.3-.1-.5-.2-.1 0-.2-.1-.4-.1-.2-.1-.5-.1-.7-.2-.2-.1-.4-.1-.5-.1H160c-1.1 0-2 .9-2 2v57h2c-.1.1-.2.1-.3.2-.2.1-.3.3-.5.5-.1.1-.1.2-.2.3-.1.1-.1.2-.2.3-.1.2-.3.4-.4.7 0 .1-.1.2-.1.3 0 .1-.1.2-.1.2 0 .1-.1.2-.1.4v.2c0 .1 0 .3-.1.4v7.5c0 .3.1.5.2.8 0 .1.1.2.1.2 0 .1.1.1.1.2s.1.1.2.2l.1.1.1.1s.1.1.2.1V63c0-2.2 1.8-4 4-4h13v13h1V48c0-5 4-9 9-9h44v-1h-7zm-37 0c-5.5 0-10 4.5-10 10v10h-17V2c0-.5.5-1 1-1h60c2.3 0 4.3.8 5.9 2.2l-4 34.8H186zm0 0c-5.5 0-10 4.5-10 10v10h1V48c0-5 4-9 9-9h35.8l.1-1H186zm0 0c-5.5 0-10 4.5-10 10v10h1V48c0-5 4-9 9-9h35.8l.1-1H186zm0 0c-5.5 0-10 4.5-10 10v10h1V48c0-5 4-9 9-9h35.8l.1-1H186zm0 0c-5.5 0-10 4.5-10 10v10h1V48c0-5 4-9 9-9h35.8l.1-1H186zm0 0c-5.5 0-10 4.5-10 10v10h1V48c0-5 4-9 9-9h35.8l.1-1H186zm0 0c-5.5 0-10 4.5-10 10v10h1V48c0-5 4-9 9-9h35.8l.1-1H186zm0 0c-5.5 0-10 4.5-10 10v10h1V48c0-5 4-9 9-9h35.8l.1-1H186zm0 0c-5.5 0-10 4.5-10 10v10h1V48c0-5 4-9 9-9h35.8l.1-1H186zm0 0c-5.5 0-10 4.5-10 10v10h1V48c0-5 4-9 9-9h35.8l.1-1H186zm0 0c-5.5 0-10 4.5-10 10v10h1V48c0-5 4-9 9-9h35.8l.1-1H186zm0 0c-5.5 0-10 4.5-10 10v10h1V48c0-5 4-9 9-9h35.8l.1-1H186zm0 0c-5.5 0-10 4.5-10 10v10h1V48c0-5 4-9 9-9h35.8l.1-1H186zm0 0c-5.5 0-10 4.5-10 10v10h1V48c0-5 4-9 9-9h35.8l.1-1H186z"/><path class="dst1" d="M176 71v1h1v-1h-1zm-17-11c-.1.1-.1.2-.2.3-.1.2-.3.4-.4.7 0 .1-.1.2-.1.3 0 .1-.1.2-.1.2 0 .1-.1.2-.1.4v.2c0 .1 0 .3-.1.4V70c0 .3.1.5.2.8 0 .1.1.2.1.2 0 .1.1.1.1.2s.1.1.2.2l.1.1.1.1s.1.1.2.1V60zm17 11v1h1v-1h-1zm-17-11c-.1.1-.1.2-.2.3-.1.2-.3.4-.4.7 0 .1-.1.2-.1.3 0 .1-.1.2-.1.2 0 .1-.1.2-.1.4v.2c0 .1 0 .3-.1.4V70c0 .3.1.5.2.8 0 .1.1.2.1.2 0 .1.1.1.1.2s.1.1.2.2l.1.1.1.1s.1.1.2.1V60zm17 11v1h1v-1h-1zm-17-11c-.1.1-.1.2-.2.3-.1.2-.3.4-.4.7 0 .1-.1.2-.1.3 0 .1-.1.2-.1.2 0 .1-.1.2-.1.4v.2c0 .1 0 .3-.1.4V70c0 .3.1.5.2.8 0 .1.1.2.1.2 0 .1.1.1.1.2s.1.1.2.2l.1.1.1.1s.1.1.2.1V60zm17 11v1h1v-1h-1zm-17-11c-.1.1-.1.2-.2.3-.1.2-.3.4-.4.7 0 .1-.1.2-.1.3 0 .1-.1.2-.1.2 0 .1-.1.2-.1.4v.2c0 .1 0 .3-.1.4V70c0 .3.1.5.2.8 0 .1.1.2.1.2 0 .1.1.1.1.2s.1.1.2.2l.1.1.1.1s.1.1.2.1V60zm17 11v1h1v-1h-1zm-17-11c-.1.1-.1.2-.2.3-.1.2-.3.4-.4.7 0 .1-.1.2-.1.3 0 .1-.1.2-.1.2 0 .1-.1.2-.1.4v.2c0 .1 0 .3-.1.4V70c0 .3.1.5.2.8 0 .1.1.2.1.2 0 .1.1.1.1.2s.1.1.2.2l.1.1.1.1s.1.1.2.1V60zm17 11v1h1v-1h-1zm-17-11c-.1.1-.1.2-.2.3-.1.2-.3.4-.4.7 0 .1-.1.2-.1.3 0 .1-.1.2-.1.2 0 .1-.1.2-.1.4v.2c0 .1 0 .3-.1.4V70c0 .3.1.5.2.8 0 .1.1.2.1.2 0 .1.1.1.1.2s.1.1.2.2l.1.1.1.1s.1.1.2.1V60zm17 11v1h1v-1h-1zm-17-11c-.1.1-.1.2-.2.3-.1.2-.3.4-.4.7 0 .1-.1.2-.1.3 0 .1-.1.2-.1.2 0 .1-.1.2-.1.4v.2c0 .1 0 .3-.1.4V70c0 .3.1.5.2.8 0 .1.1.2.1.2 0 .1.1.1.1.2s.1.1.2.2l.1.1.1.1s.1.1.2.1V60zm17 11v1h1v-1h-1zm-17-11c-.1.1-.1.2-.2.3-.1.2-.3.4-.4.7 0 .1-.1.2-.1.3 0 .1-.1.2-.1.2 0 .1-.1.2-.1.4v.2c0 .1 0 .3-.1.4V70c0 .3.1.5.2.8 0 .1.1.2.1.2 0 .1.1.1.1.2s.1.1.2.2l.1.1.1.1s.1.1.2.1V60zm17 11v1h1v-1h-1zm-17-11c-.1.1-.1.2-.2.3-.1.2-.3.4-.4.7 0 .1-.1.2-.1.3 0 .1-.1.2-.1.2 0 .1-.1.2-.1.4v.2c0 .1 0 .3-.1.4V70c0 .3.1.5.2.8 0 .1.1.2.1.2 0 .1.1.1.1.2s.1.1.2.2l.1.1.1.1s.1.1.2.1V60zm17 11v1h1v-1h-1zm-17-11c-.1.1-.1.2-.2.3-.1.2-.3.4-.4.7 0 .1-.1.2-.1.3 0 .1-.1.2-.1.2 0 .1-.1.2-.1.4v.2c0 .1 0 .3-.1.4V70c0 .3.1.5.2.8 0 .1.1.2.1.2 0 .1.1.1.1.2s.1.1.2.2l.1.1.1.1s.1.1.2.1V60zm17 11v1h1v-1h-1zm-17-11c-.1.1-.1.2-.2.3-.1.2-.3.4-.4.7 0 .1-.1.2-.1.3 0 .1-.1.2-.1.2 0 .1-.1.2-.1.4v.2c0 .1 0 .3-.1.4V70c0 .3.1.5.2.8 0 .1.1.2.1.2 0 .1.1.1.1.2s.1.1.2.2l.1.1.1.1s.1.1.2.1V60zm17 11v1h1v-1h-1zm-17-11c-.1.1-.1.2-.2.3-.1.2-.3.4-.4.7 0 .1-.1.2-.1.3 0 .1-.1.2-.1.2 0 .1-.1.2-.1.4v.2c0 .1 0 .3-.1.4V70c0 .3.1.5.2.8 0 .1.1.2.1.2 0 .1.1.1.1.2s.1.1.2.2l.1.1.1.1s.1.1.2.1V60zm17 11v1h1v-1h-1zm-17-11c-.1.1-.1.2-.2.3-.1.2-.3.4-.4.7 0 .1-.1.2-.1.3 0 .1-.1.2-.1.2 0 .1-.1.2-.1.4v.2c0 .1 0 .3-.1.4V70c0 .3.1.5.2.8 0 .1.1.2.1.2 0 .1.1.1.1.2s.1.1.2.2l.1.1.1.1s.1.1.2.1V60zm17 11v1h1v-1h-1zm-17-11c-.1.1-.1.2-.2.3-.1.2-.3.4-.4.7 0 .1-.1.2-.1.3 0 .1-.1.2-.1.2 0 .1-.1.2-.1.4v.2c0 .1 0 .3-.1.4V70c0 .3.1.5.2.8 0 .1.1.2.1.2 0 .1.1.1.1.2s.1.1.2.2l.1.1.1.1s.1.1.2.1V60zm17 11v1h1v-1h-1zm50.7-68.4l-.3-.3c-.1-.1-.3-.2-.4-.3l-.9-.6c-.1-.1-.3-.2-.5-.3-.1-.1-.3-.2-.4-.2-.1-.1-.3-.1-.4-.2-.2-.1-.3-.1-.5-.2-.1 0-.2-.1-.4-.1-.2-.1-.5-.1-.7-.2-.2-.1-.4-.1-.5-.1h-61.8c-1.1 0-2 .9-2 2v57h1V2c0-.5.5-1 1-1h60c2.3 0 4.3.8 5.9 2.2l.9.9.2-1.3-.2-.2zM176 72h1v-1h-1v1zm-17.2-11.7c-.1.2-.3.4-.4.7 0 .1-.1.2-.1.3 0 .1-.1.2-.1.2 0 .1-.1.2-.1.4v.2c0 .1 0 .3-.1.4V70c0 .3.1.5.2.8 0 .1.1.2.1.2 0 .1.1.1.1.2s.1.1.2.2l.1.1.1.1s.1.1.2.1V60c-.1.1-.2.2-.2.3zM176 71v1h1v-1h-1zm-17-11c-.1.1-.1.2-.2.3-.1.2-.3.4-.4.7 0 .1-.1.2-.1.3 0 .1-.1.2-.1.2 0 .1-.1.2-.1.4v.2c0 .1 0 .3-.1.4V70c0 .3.1.5.2.8 0 .1.1.2.1.2 0 .1.1.1.1.2s.1.1.2.2l.1.1.1.1s.1.1.2.1V60zm17 11v1h1v-1h-1zm-17-11c-.1.1-.1.2-.2.3-.1.2-.3.4-.4.7 0 .1-.1.2-.1.3 0 .1-.1.2-.1.2 0 .1-.1.2-.1.4v.2c0 .1 0 .3-.1.4V70c0 .3.1.5.2.8 0 .1.1.2.1.2 0 .1.1.1.1.2s.1.1.2.2l.1.1.1.1s.1.1.2.1V60zm17 11v1h1v-1h-1zm-17-11c-.1.1-.1.2-.2.3-.1.2-.3.4-.4.7 0 .1-.1.2-.1.3 0 .1-.1.2-.1.2 0 .1-.1.2-.1.4v.2c0 .1 0 .3-.1.4V70c0 .3.1.5.2.8 0 .1.1.2.1.2 0 .1.1.1.1.2s.1.1.2.2l.1.1.1.1s.1.1.2.1V60zm17 11v1h1v-1h-1zm-17-11c-.1.1-.1.2-.2.3-.1.2-.3.4-.4.7 0 .1-.1.2-.1.3 0 .1-.1.2-.1.2 0 .1-.1.2-.1.4v.2c0 .1 0 .3-.1.4V70c0 .3.1.5.2.8 0 .1.1.2.1.2 0 .1.1.1.1.2s.1.1.2.2l.1.1.1.1s.1.1.2.1V60zm17 11v1h1v-1h-1zm-17-11c-.1.1-.1.2-.2.3-.1.2-.3.4-.4.7 0 .1-.1.2-.1.3 0 .1-.1.2-.1.2 0 .1-.1.2-.1.4v.2c0 .1 0 .3-.1.4V70c0 .3.1.5.2.8 0 .1.1.2.1.2 0 .1.1.1.1.2s.1.1.2.2l.1.1.1.1s.1.1.2.1V60zm17 11v1h1v-1h-1zm-17-11c-.1.1-.1.2-.2.3-.1.2-.3.4-.4.7 0 .1-.1.2-.1.3 0 .1-.1.2-.1.2 0 .1-.1.2-.1.4v.2c0 .1 0 .3-.1.4V70c0 .3.1.5.2.8 0 .1.1.2.1.2 0 .1.1.1.1.2s.1.1.2.2l.1.1.1.1s.1.1.2.1V60zm17 11v1h1v-1h-1zm-17-11c-.1.1-.1.2-.2.3-.1.2-.3.4-.4.7 0 .1-.1.2-.1.3 0 .1-.1.2-.1.2 0 .1-.1.2-.1.4v.2c0 .1 0 .3-.1.4V70c0 .3.1.5.2.8 0 .1.1.2.1.2 0 .1.1.1.1.2s.1.1.2.2l.1.1.1.1s.1.1.2.1V60zm17 11v1h1v-1h-1zm-17-11c-.1.1-.1.2-.2.3-.1.2-.3.4-.4.7 0 .1-.1.2-.1.3 0 .1-.1.2-.1.2 0 .1-.1.2-.1.4v.2c0 .1 0 .3-.1.4V70c0 .3.1.5.2.8 0 .1.1.2.1.2 0 .1.1.1.1.2s.1.1.2.2l.1.1.1.1s.1.1.2.1V60zm17 11v1h1v-1h-1zm-17-11c-.1.1-.1.2-.2.3-.1.2-.3.4-.4.7 0 .1-.1.2-.1.3 0 .1-.1.2-.1.2 0 .1-.1.2-.1.4v.2c0 .1 0 .3-.1.4V70c0 .3.1.5.2.8 0 .1.1.2.1.2 0 .1.1.1.1.2s.1.1.2.2l.1.1.1.1s.1.1.2.1V60zm17 11v1h1v-1h-1zm-17-11c-.1.1-.1.2-.2.3-.1.2-.3.4-.4.7 0 .1-.1.2-.1.3 0 .1-.1.2-.1.2 0 .1-.1.2-.1.4v.2c0 .1 0 .3-.1.4V70c0 .3.1.5.2.8 0 .1.1.2.1.2 0 .1.1.1.1.2s.1.1.2.2l.1.1.1.1s.1.1.2.1V60zm17 11v1h1v-1h-1zm-17-11c-.1.1-.1.2-.2.3-.1.2-.3.4-.4.7 0 .1-.1.2-.1.3 0 .1-.1.2-.1.2 0 .1-.1.2-.1.4v.2c0 .1 0 .3-.1.4V70c0 .3.1.5.2.8 0 .1.1.2.1.2 0 .1.1.1.1.2s.1.1.2.2l.1.1.1.1s.1.1.2.1V60zm70-22v1h1v-1h-1zm-53 33v1h1v-1h-1zm-17-11c-.1.1-.1.2-.2.3-.1.2-.3.4-.4.7 0 .1-.1.2-.1.3 0 .1-.1.2-.1.2 0 .1-.1.2-.1.4v.2c0 .1 0 .3-.1.4V70c0 .3.1.5.2.8 0 .1.1.2.1.2 0 .1.1.1.1.2s.1.1.2.2l.1.1.1.1s.1.1.2.1V60zm17 11v1h1v-1h-1zm-17-11c-.1.1-.1.2-.2.3-.1.2-.3.4-.4.7 0 .1-.1.2-.1.3 0 .1-.1.2-.1.2 0 .1-.1.2-.1.4v.2c0 .1 0 .3-.1.4V70c0 .3.1.5.2.8 0 .1.1.2.1.2 0 .1.1.1.1.2s.1.1.2.2l.1.1.1.1s.1.1.2.1V60zm17 11v1h1v-1h-1zm-17-11c-.1.1-.1.2-.2.3-.1.2-.3.4-.4.7 0 .1-.1.2-.1.3 0 .1-.1.2-.1.2 0 .1-.1.2-.1.4v.2c0 .1 0 .3-.1.4V70c0 .3.1.5.2.8 0 .1.1.2.1.2 0 .1.1.1.1.2s.1.1.2.2l.1.1.1.1s.1.1.2.1V60z"/><path class="dst0" d="M26 38H2c-1.1 0-2 .9-2 2v34c0 1.1.9 2 2 2h32c.3 0 .5-.1.8-.2.1 0 .2-.1.2-.1.1 0 .2-.1.2-.1.1 0 .1-.1.2-.2l.1-.1.1-.1s.1-.1.1-.2H16c-.5 0-1-.5-1-1V59.7c.1-.4.5-.8 1-.8h20V48c0-5.5-4.5-10-10-10zM16 58h-.7c-.1 0-.3.1-.4.2-.1.1-.2.1-.3.2-.1 0-.1.1-.1.1-.1.1-.1.2-.2.2 0 .1-.1.1-.1.2-.2.3-.3.6-.3 1v14c0 .4.1.7.3 1H2c-.5 0-1-.5-1-1V40c0-.5.5-1 1-1h24c5 0 9 4 9 9v10H16z"/><path class="dst1" d="M26 38H2c-1.1 0-2 .9-2 2v34c0 1.1.9 2 2 2h32c.3 0 .5-.1.8-.2.1 0 .2-.1.2-.1.1 0 .2-.1.2-.1.1 0 .1-.1.2-.2l.1-.1.1-.1s.1-.1.1-.2H2c-.5 0-1-.5-1-1V40c0-.5.5-1 1-1h24c5 0 9 4 9 9v11h1V48c0-5.5-4.5-10-10-10z"/><path class="dst0" d="M178 75c-.5 0-1-.5-1-1V58H15.3c-.1 0-.3.1-.4.2-.1.1-.2.1-.3.2-.1 0-.1.1-.1.1-.1.1-.1.2-.2.2 0 .1-.1.1-.1.2-.2.3-.3.6-.3 1v14c0 .4.1.7.3 1 0 0 .1.1.1.2l.1.1c0 .1.1.1.1.1l.2.2c.1.1.1.1.2.1s.2.1.2.1c.2.1.5.2.8.2h212.5c.1 0 .1 0 .2-.1.1 0 .1-.1.2-.1s.1-.1.2-.1.1-.1.2-.1c.1-.1.2-.1.2-.2l.1-.1c.1-.1.1-.2.2-.3H178zM16 75c-.5 0-1-.5-1-1V59.7c.1-.4.5-.8 1-.8h144c-.1.1-.2.1-.3.2-.2.1-.3.3-.5.5-.1.1-.1.2-.2.3-.1.1-.1.2-.2.3-.1.2-.3.4-.4.7 0 .1-.1.2-.1.3 0 .1-.1.2-.1.2 0 .1-.1.2-.1.4v.2c0 .1 0 .3-.1.4v11.5c0 .4.1.7.3 1H16zm144 0c-.5 0-1-.5-1-1V63c0-2.2 1.8-4 4-4h13v15c0 .4.1.7.3 1H160z"/><path class="dst1" d="M16 75c-.5 0-1-.5-1-1V59.7c.1-.4.5-.8 1-.8h161v-1H15.3c-.1 0-.3.1-.4.2-.1.1-.2.1-.3.2-.1 0-.1.1-.1.1-.1.1-.1.2-.2.2 0 .1-.1.1-.1.2-.2.3-.3.6-.3 1v14c0 .4.1.7.3 1 0 0 .1.1.1.2l.1.1c0 .1.1.1.1.1l.2.2c.1.1.1.1.2.1s.2.1.2.1c.2.1.5.2.8.2h212.5c.1 0 .1 0 .2-.1.1 0 .1-.1.2-.1s.1-.1.2-.1.1-.1.2-.1c.1-.1.2-.1.2-.2l.1-.1c.1-.1.1-.2.2-.3H16z"/><path class="dst0" d="M178 75c-.5 0-1-.5-1-1V58h-14.5c-.1 0-.3 0-.4.1h-.2c-.1 0-.2.1-.4.1-.1 0-.2.1-.2.1-.1 0-.2.1-.3.1-.3.1-.5.2-.7.4-.1.1-.2.1-.3.2-.1.1-.2.1-.3.2-.2.1-.3.3-.5.5-.1.1-.1.2-.2.3-.1.1-.1.2-.2.3-.1.2-.3.4-.4.7 0 .1-.1.2-.1.3 0 .1-.1.2-.1.2 0 .1-.1.2-.1.4v.2c0 .1 0 .3-.1.4V74c0 .4.1.7.3 1 0 0 .1.1.1.2l.1.1c0 .1.1.1.1.1l.2.2c.1.1.1.1.2.1s.2.1.2.1c.2.1.5.2.8.2h68.5c.1 0 .1 0 .2-.1.1 0 .1-.1.2-.1s.1-.1.2-.1.1-.1.2-.1c.1-.1.2-.1.2-.2l.1-.1c.1-.1.1-.2.2-.3H178zm-18 0c-.5 0-1-.5-1-1V63c0-2.2 1.8-4 4-4h13v15c0 .4.1.7.3 1H160z"/><path class="dst1" d="M160 75c-.5 0-1-.5-1-1V63c0-2.2 1.8-4 4-4h14v-1h-14.5c-.1 0-.3 0-.4.1h-.2c-.1 0-.2.1-.4.1-.1 0-.2.1-.2.1-.1 0-.2.1-.3.1-.3.1-.5.2-.7.4-.1.1-.2.1-.3.2-.1.1-.2.1-.3.2-.2.1-.3.3-.5.5-.1.1-.1.2-.2.3-.1.1-.1.2-.2.3-.1.2-.3.4-.4.7 0 .1-.1.2-.1.3 0 .1-.1.2-.1.2 0 .1-.1.2-.1.4v.2c0 .1 0 .3-.1.4V74c0 .4.1.7.3 1 0 0 .1.1.1.2l.1.1c0 .1.1.1.1.1l.2.2c.1.1.1.1.2.1s.2.1.2.1c.2.1.5.2.8.2h68.5c.1 0 .1 0 .2-.1.1 0 .1-.1.2-.1s.1-.1.2-.1.1-.1.2-.1c.1-.1.2-.1.2-.2l.1-.1c.1-.1.1-.2.2-.3H160z"/><path class="dst0" d="M9.8 93l-.3 1-2.9 11.5c-.3 1.3.6 2.5 1.9 2.5h7.9c.9 0 1.7-.6 1.9-1.5L21.5 94l.3-1h-12zm7.6 13.2c-.1.5-.5.8-1 .8H8.6c-.3 0-.6-.1-.8-.4-.2-.3-.3-.6-.2-.9L10.5 94h9.9l-3 12.2z"/><path class="dst1" d="M20.7 93l-3.3 13.2c-.1.5-.5.8-1 .8H8.6c-.3 0-.6-.1-.8-.4-.2-.3-.3-.6-.2-.9L10.8 93h-1l-.3 1-2.9 11.5c-.3 1.3.6 2.5 1.9 2.5h7.9c.9 0 1.7-.6 1.9-1.5L21.5 94l.3-1h-1.1z"/><path class="dst0" d="M235.2 76c-.4.4-1 .6-1.6.5l-4.8-.5h6.4z"/><path class="dst1" d="M235.2 76h-6.4l4.8.5h.2c.6.1 1.1-.1 1.4-.5z"/><path class="dst0" d="M242 0h-14c-.8 0-1.5.5-1.8 1.2l-.1.8-.1.6-.1.6-4 34.8-.1 1H242c.5 0 1 .5 1 1v34c0 .5-.5 1-1 1h-21.8l7 .8 1.3.2H242c1.1 0 2-.9 2-2V2c0-1.1-.9-2-2-2zm0 38h-19l3.9-33.8.2-1.3v-.1l.1-1.2c.2-.3.5-.5.9-.5h14c.5 0 1 .5 1 1v36.3c-.4-.3-.7-.4-1.1-.4z"/><path class="dst1" d="M242 0h-14c-.8 0-1.5.5-1.8 1.2l-.1.8-.1.6-.1.6-4 34.8-.1 1h1l.1-1 3.9-33.8.2-1.3v-.1l.1-1.2c.2-.3.5-.5.9-.5h14c.5 0 1 .5 1 1v72c0 .5-.5 1-1 1h-21.8l7 .8 1.3.2H242c1.1 0 2-.9 2-2V2c0-1.1-.9-2-2-2z"/><path class="dst0" d="M244 3.3v.3-1c0 .2.1.4 0 .7z"/><path class="dst1" d="M244 2.6v1-.3c.1-.3 0-.5 0-.7z"/><path class="dst0" d="M243.8 39.2c0-.1-.1-.2-.1-.2 0-.1-.1-.1-.1-.2s-.1-.1-.2-.2l-.1-.1-.1-.1c-.1 0-.1-.1-.2-.1-.3-.2-.6-.3-1-.3h-56c-5.5 0-10 4.5-10 10v26c0 .4.1.7.3 1 0 0 .1.1.1.2l.1.1c0 .1.1.1.1.1l.2.2c.1.1.1.1.2.1s.2.1.2.1c.2.1.5.2.8.2h64c1.1 0 2-.9 2-2V40c0-.3-.1-.5-.2-.8zM243 74c0 .5-.5 1-1 1h-64c-.5 0-1-.5-1-1V48c0-5 4-9 9-9h56c.5 0 1 .5 1 1v34z"/><path class="dst1" d="M243.8 39.2c0-.1-.1-.2-.1-.2 0-.1-.1-.1-.1-.2s-.1-.1-.2-.2l-.1-.1-.1-.1c-.1 0-.1-.1-.2-.1-.3-.2-.6-.3-1-.3h-56c-5.5 0-10 4.5-10 10v26c0 .4.1.7.3 1 0 0 .1.1.1.2l.1.1c0 .1.1.1.1.1l.2.2c.1.1.1.1.2.1s.2.1.2.1c.2.1.5.2.8.2h64c1.1 0 2-.9 2-2V40c0-.3-.1-.5-.2-.8zM243 74c0 .5-.5 1-1 1h-64c-.5 0-1-.5-1-1V48c0-5 4-9 9-9h56c.5 0 1 .5 1 1v34z"/><path class="dst0" d="M237.9 105.5L235.1 94l-.3-1h-12l.3 1 3.1 12.5c.2.9 1 1.5 1.9 1.5h7.9c1.3 0 2.3-1.2 1.9-2.5zm-1.1 1.1c-.2.2-.5.4-.8.4h-7.9c-.5 0-.9-.3-1-.8l-3-12.2h9.9l2.9 11.8c.1.3.1.6-.1.8z"/><path class="dst1" d="M237.9 105.5L235.1 94l-.3-1h-1l3.2 12.8c.1.3 0 .6-.2.9-.2.2-.5.4-.8.4h-7.9c-.5 0-.9-.3-1-.8L223.8 93h-1l.3 1 3.1 12.5c.2.9 1 1.5 1.9 1.5h7.9c1.3 0 2.3-1.2 1.9-2.5z"/><path class="dst0" d="M242 76H2c-1.1 0-2 .9-2 2v14c0 1.1.9 2 2 2h240c1.1 0 2-.9 2-2V78c0-1.1-.9-2-2-2zM2 93c-.5 0-1-.5-1-1V78c0-.5.5-1 1-1h156.3c-.2.3-.3.6-.3 1v14c0 .4.1.7.3 1H2zm241-1c0 .5-.5 1-1 1h-82c-.5 0-1-.5-1-1V78c0-.5.5-1 1-1h82c.5 0 1 .5 1 1v14z"/><path class="dst1" d="M242 76H2c-1.1 0-2 .9-2 2v14c0 1.1.9 2 2 2h240c1.1 0 2-.9 2-2V78c0-1.1-.9-2-2-2zm1 16c0 .5-.5 1-1 1H2c-.5 0-1-.5-1-1V78c0-.5.5-1 1-1h240c.5 0 1 .5 1 1v14z"/><path class="dst0" d="M163.8 93l-.3 1-2.9 11.5c-.3 1.3.6 2.5 1.9 2.5h7.9c.9 0 1.7-.6 1.9-1.5l3.1-12.5.3-1h-11.9zm7.6 13.2c-.1.5-.5.8-1 .8h-7.9c-.3 0-.6-.1-.8-.4-.2-.3-.3-.6-.2-.9l2.9-11.8h9.9l-2.9 12.3z"/><path class="dst1" d="M174.7 93l-3.3 13.2c-.1.5-.5.8-1 .8h-7.9c-.3 0-.6-.1-.8-.4-.2-.3-.3-.6-.2-.9l3.2-12.8h-1l-.3 1-2.9 11.5c-.3 1.3.6 2.5 1.9 2.5h7.9c.9 0 1.7-.6 1.9-1.5l3.1-12.5.3-1h-.9z"/><g><path class="dst0" d="M50 27c-1.7 0-3 1.3-3 3s1.3 3 3 3 3-1.3 3-3-1.3-3-3-3zm0 5c-1.1 0-2-.9-2-2s.9-2 2-2 2 .9 2 2-.9 2-2 2z"/><path class="dst1" d="M50 27c-1.7 0-3 1.3-3 3s1.3 3 3 3 3-1.3 3-3-1.3-3-3-3zm0 5c-1.1 0-2-.9-2-2s.9-2 2-2 2 .9 2 2-.9 2-2 2z"/></g><g><path class="dst0" d="M242 76h-82c-.7 0-1.4.4-1.7 1-.2.3-.3.6-.3 1v14c0 .4.1.7.3 1 .3.6 1 1 1.7 1h82c1.1 0 2-.9 2-2V78c0-1.1-.9-2-2-2zm1 16c0 .5-.5 1-1 1h-82c-.5 0-1-.5-1-1V78c0-.5.5-1 1-1h82c.5 0 1 .5 1 1v14z"/><path class="dst1" d="M242 76h-82c-.7 0-1.4.4-1.7 1-.2.3-.3.6-.3 1v14c0 .4.1.7.3 1 .3.6 1 1 1.7 1h82c1.1 0 2-.9 2-2V78c0-1.1-.9-2-2-2zm1 16c0 .5-.5 1-1 1h-82c-.5 0-1-.5-1-1V78c0-.5.5-1 1-1h82c.5 0 1 .5 1 1v14z"/></g><g><path class="dst0" d="M124.4 28.2c-.1-.1-.2-.2-.2-.3-.1-.1-.3-.3-.5-.4 0 0-.1-.1-.2-.1s-.1-.1-.2-.1c-.1-.1-.1-.1-.2-.1s-.1 0-.2-.1c-.1 0-.1 0-.2-.1h-.7c-.6 0-1.3.2-1.8.6-1.3 1-1.6 2.9-.6 4.2.1.1.1.2.2.3.1.1.3.3.5.4.1 0 .1.1.2.1 0 0 .1.1.2.1.1.1.2.1.2.1.1 0 .3.1.4.1h.7c.6 0 1.3-.2 1.8-.6 1.3-.9 1.6-2.8.6-4.1zm-1.2 3.4c-.3.3-.8.4-1.2.4-.6 0-1.2-.3-1.6-.8-.3-.4-.5-1-.4-1.5.1-.5.3-1 .8-1.3.4-.3.8-.4 1.2-.4.6 0 1.2.3 1.6.8.7.9.5 2.1-.4 2.8z"/><path class="dst1" d="M124.4 28.2c-.1-.1-.2-.2-.2-.3-.1-.1-.3-.3-.5-.4 0 0-.1-.1-.2-.1s-.1-.1-.2-.1c-.1-.1-.1-.1-.2-.1s-.1 0-.2-.1c-.1 0-.1 0-.2-.1h-.7c-.6 0-1.3.2-1.8.6-1.3 1-1.6 2.9-.6 4.2.1.1.1.2.2.3.1.1.3.3.5.4.1 0 .1.1.2.1 0 0 .1.1.2.1.1.1.2.1.2.1.1 0 .3.1.4.1h.7c.6 0 1.3-.2 1.8-.6 1.3-.9 1.6-2.8.6-4.1zm-1.2 3.4c-.3.3-.8.4-1.2.4-.6 0-1.2-.3-1.6-.8-.3-.4-.5-1-.4-1.5.1-.5.3-1 .8-1.3.4-.3.8-.4 1.2-.4.6 0 1.2.3 1.6.8.7.9.5 2.1-.4 2.8z"/></g><g><path class="dst0" d="M196.4 28.2c-.1-.1-.2-.2-.2-.3-.1-.1-.3-.3-.5-.4 0 0-.1-.1-.2-.1s-.1-.1-.2-.1c-.1-.1-.1-.1-.2-.1s-.1 0-.2-.1c-.1 0-.1 0-.2-.1h-.7c-.6 0-1.3.2-1.8.6-1.3 1-1.6 2.9-.6 4.2.1.1.1.2.2.3.1.1.3.3.5.4.1 0 .1.1.2.1 0 0 .1.1.2.1.1.1.2.1.2.1.1 0 .3.1.4.1h.7c.6 0 1.3-.2 1.8-.6 1.3-.9 1.6-2.8.6-4.1zm-1.2 3.4c-.3.3-.8.4-1.2.4-.6 0-1.2-.3-1.6-.8-.7-.9-.5-2.1.4-2.8.4-.3.8-.4 1.2-.4.6 0 1.2.3 1.6.8.7.9.5 2.1-.4 2.8z"/><path class="dst1" d="M196.4 28.2c-.1-.1-.2-.2-.2-.3-.1-.1-.3-.3-.5-.4 0 0-.1-.1-.2-.1s-.1-.1-.2-.1c-.1-.1-.1-.1-.2-.1s-.1 0-.2-.1c-.1 0-.1 0-.2-.1h-.7c-.6 0-1.3.2-1.8.6-1.3 1-1.6 2.9-.6 4.2.1.1.1.2.2.3.1.1.3.3.5.4.1 0 .1.1.2.1 0 0 .1.1.2.1.1.1.2.1.2.1.1 0 .3.1.4.1h.7c.6 0 1.3-.2 1.8-.6 1.3-.9 1.6-2.8.6-4.1zm-1.2 3.4c-.3.3-.8.4-1.2.4-.6 0-1.2-.3-1.6-.8-.7-.9-.5-2.1.4-2.8.4-.3.8-.4 1.2-.4.6 0 1.2.3 1.6.8.7.9.5 2.1-.4 2.8z"/></g><g><path class="dst0" d="M228.8 76h-.8c-.3 0-.6-.1-.9-.2l1.7.2z"/><path class="dst1" d="M227.1 75.8c.3.1.5.2.9.2h.8l-1.7-.2z"/></g></symbol><symbol viewBox="0 0 114 108" id="armchair"><path class="est0" d="M57 27c-1.7 0-3 1.3-3 3s1.3 3 3 3 3-1.3 3-3-1.3-3-3-3zm0 5c-1.1 0-2-.9-2-2s.9-2 2-2 2 .9 2 2-.9 2-2 2z"/><path class="est0" d="M36 58v1h42v-1H36zm0 0v1h42v-1H36zm0 0v1h42v-1H36zm0 0v1h42v-1H36zm0 0v1h42v-1H36zM90 0H24c-5.5 0-10 4.5-10 10v29h12c5 0 9 4 9 9v10H16c-.4 0-.7.1-1 .3-.6.4-1 1-1 1.7v10c0 .7.4 1.4 1 1.7V60c0-.5.5-1 1-1h82c.5 0 1 .5 1 1v11.7c.6-.3 1-1 1-1.7V60c0-.7-.4-1.4-1-1.7-.3-.2-.6-.3-1-.3H79V48c0-5 4-9 9-9h12V10c0-5.5-4.5-10-10-10zm-2 38c-5.5 0-10 4.5-10 10v10H36V48c0-5.5-4.5-10-10-10H15V10c0-5 4-9 9-9h66c5 0 9 4 9 9v28H88zM36 58v1h42v-1H36zm0 0v1h42v-1H36zm0 0v1h42v-1H36zm0 0v1h42v-1H36zm0 0v1h42v-1H36z"/><path class="est1" d="M90 0H24c-5.5 0-10 4.5-10 10v29h1V10c0-5 4-9 9-9h66c5 0 9 4 9 9v29h1V10c0-5.5-4.5-10-10-10zM14 60v10c0 .7.4 1.4 1 1.7V58.3c-.6.3-1 1-1 1.7zm85-1.7v13.5c.6-.3 1-1 1-1.7V60c0-.7-.4-1.4-1-1.7z"/><path class="est0" d="M112 38H88c-5.5 0-10 4.5-10 10v11h20c.5 0 1 .5 1 1v14c0 .5-.5 1-1 1H78.3c.3.6 1 1 1.7 1h32c1.1 0 2-.9 2-2V40c0-1.1-.9-2-2-2zm1 36c0 .5-.5 1-1 1H99.7c.2-.3.3-.6.3-1V60c0-.7-.4-1.4-1-1.7-.3-.2-.6-.3-1-.3H79V48c0-5 4-9 9-9h24c.5 0 1 .5 1 1v34z"/><path class="est1" d="M112 38H88c-5.5 0-10 4.5-10 10v11h1V48c0-5 4-9 9-9h24c.5 0 1 .5 1 1v34c0 .5-.5 1-1 1H78.3c.3.6 1 1 1.7 1h32c1.1 0 2-.9 2-2V40c0-1.1-.9-2-2-2z"/><path class="est0" d="M26 38H2c-1.1 0-2 .9-2 2v34c0 1.1.9 2 2 2h32c.7 0 1.4-.4 1.7-1H16c-.5 0-1-.5-1-1V60c0-.5.5-1 1-1h20V48c0-5.5-4.5-10-10-10zM16 58c-.4 0-.7.1-1 .3-.6.4-1 1-1 1.7v14c0 .4.1.7.3 1H2c-.5 0-1-.5-1-1V40c0-.5.5-1 1-1h24c5 0 9 4 9 9v10H16z"/><path class="est1" d="M26 38H2c-1.1 0-2 .9-2 2v34c0 1.1.9 2 2 2h32c.7 0 1.4-.4 1.7-1H2c-.5 0-1-.5-1-1V40c0-.5.5-1 1-1h24c5 0 9 4 9 9v11h1V48c0-5.5-4.5-10-10-10z"/><path class="est0" d="M99 58.3c-.3-.2-.6-.3-1-.3H16c-.4 0-.7.1-1 .3-.6.4-1 1-1 1.7v14c0 .4.1.7.3 1 .3.6 1 1 1.7 1h82c.7 0 1.4-.4 1.7-1 .2-.3.3-.6.3-1V60c0-.7-.4-1.4-1-1.7zM16 75c-.5 0-1-.5-1-1V60c0-.5.5-1 1-1h82c.5 0 1 .5 1 1v14c0 .5-.5 1-1 1H16z"/><path class="est1" d="M99 58.3c-.3-.2-.6-.3-1-.3H16c-.4 0-.7.1-1 .3-.6.4-1 1-1 1.7v14c0 .4.1.7.3 1 .3.6 1 1 1.7 1h82c.7 0 1.4-.4 1.7-1 .2-.3.3-.6.3-1V60c0-.7-.4-1.4-1-1.7zM16 75c-.5 0-1-.5-1-1V60c0-.5.5-1 1-1h82c.5 0 1 .5 1 1v14c0 .5-.5 1-1 1H16z"/><path class="est0" d="M9.8 93l-.3 1-2.9 11.5c-.3 1.3.6 2.5 1.9 2.5h7.9c.9 0 1.7-.6 1.9-1.5L21.5 94l.3-1h-12zm7.6 13.2c-.1.5-.5.8-1 .8H8.6c-.3 0-.6-.1-.8-.4-.2-.3-.3-.6-.2-.9L10.5 94h9.9l-3 12.2z"/><path class="est1" d="M20.7 93l-3.3 13.2c-.1.5-.5.8-1 .8H8.6c-.3 0-.6-.1-.8-.4-.2-.3-.3-.6-.2-.9L10.8 93h-1l-.3 1-2.9 11.5c-.3 1.3.6 2.5 1.9 2.5h7.9c.9 0 1.7-.6 1.9-1.5L21.5 94l.3-1h-1.1z"/><path class="est0" d="M107.9 105.5L105.1 94l-.3-1h-12l.3 1 3.1 12.5c.2.9 1 1.5 1.9 1.5h7.9c1.3 0 2.3-1.2 1.9-2.5zm-1.1 1.1c-.2.2-.5.4-.8.4h-7.9c-.5 0-.9-.3-1-.8l-3-12.2h9.9l2.9 11.8c.1.3.1.6-.1.8z"/><path class="est1" d="M107.9 105.5L105.1 94l-.3-1h-1l3.2 12.8c.1.3 0 .6-.2.9-.2.2-.5.4-.8.4h-7.9c-.5 0-.9-.3-1-.8L93.8 93h-1l.3 1 3.1 12.5c.2.9 1 1.5 1.9 1.5h7.9c1.3 0 2.3-1.2 1.9-2.5z"/><g><path class="est0" d="M112 76H2c-1.1 0-2 .9-2 2v14c0 1.1.9 2 2 2h110c1.1 0 2-.9 2-2V78c0-1.1-.9-2-2-2zm1 16c0 .5-.5 1-1 1H2c-.5 0-1-.5-1-1V78c0-.5.5-1 1-1h110c.5 0 1 .5 1 1v14z"/><path class="est1" d="M112 76H2c-1.1 0-2 .9-2 2v14c0 1.1.9 2 2 2h110c1.1 0 2-.9 2-2V78c0-1.1-.9-2-2-2zm1 16c0 .5-.5 1-1 1H2c-.5 0-1-.5-1-1V78c0-.5.5-1 1-1h110c.5 0 1 .5 1 1v14z"/></g><g><path class="est0" d="M57 27c-1.7 0-3 1.3-3 3s1.3 3 3 3 3-1.3 3-3-1.3-3-3-3zm0 5c-1.1 0-2-.9-2-2s.9-2 2-2 2 .9 2 2-.9 2-2 2z"/><path class="est1" d="M57 27c-1.7 0-3 1.3-3 3s1.3 3 3 3 3-1.3 3-3-1.3-3-3-3zm0 5c-1.1 0-2-.9-2-2s.9-2 2-2 2 .9 2 2-.9 2-2 2z"/></g></symbol><symbol viewBox="0 0 22.312 18.875" id="basket"><path data-name=" copy 2" class="fcls-1" d="M6.871 15.442a1.738 1.738 0 1 0 1.2.509 1.645 1.645 0 0 0-1.2-.509zm12 0a1.738 1.738 0 1 0 1.2.509 1.645 1.645 0 0 0-1.2-.509zm3.174-13.46a.824.824 0 0 0-.6-.255H5.356q-.014-.093-.06-.348L5.222.984a2.037 2.037 0 0 0-.107-.348 1.3 1.3 0 0 0-.174-.328A.782.782 0 0 0 4.68.1a.818.818 0 0 0-.382-.087H.87a.857.857 0 0 0 0 1.714h2.732l2.37 11.023c-.018.045-.087.176-.207.395s-.217.4-.288.536a5.051 5.051 0 0 0-.215.482 1.283 1.283 0 0 0-.107.422.871.871 0 0 0 .857.857h13.715a.858.858 0 0 0 0-1.715H7.406a2.57 2.57 0 0 0 .322-.857 8.326 8.326 0 0 0-.174-.937l13.982-1.634a.848.848 0 0 0 .542-.288.831.831 0 0 0 .221-.569V2.585a.826.826 0 0 0-.254-.603z"/></symbol><symbol viewBox="0 0 20.937 19.968" id="bell"><path data-name="" class="gcls-1" d="M4.112.151A10.324 10.324 0 0 0-.013 7.979h2.016A8.148 8.148 0 0 1 3.034 4.37a8.591 8.591 0 0 1 2.485-2.813zm16.829 7.828a10.818 10.818 0 0 0-1.219-4.406A9.96 9.96 0 0 0 16.816.151l-1.454 1.406A8.846 8.846 0 0 1 17.87 4.37a8 8 0 0 1 1.055 3.609h2.016zM15.55 4.44a6.353 6.353 0 0 0-3.609-2.273V1.51a1.463 1.463 0 0 0-.422-1.078A1.434 1.434 0 0 0 10.464.01a1.512 1.512 0 0 0-1.078.422 1.421 1.421 0 0 0-.445 1.078v.652A6.485 6.485 0 0 0 3.972 8.49v5.484L1.956 15.99v.984h17.016v-.984l-2.016-2.016V8.49a6.31 6.31 0 0 0-1.405-4.05zm-4.688 15.492a1.865 1.865 0 0 0 1.454-1.172 2.131 2.131 0 0 0 .14-.75H8.472a2 2 0 0 0 1.969 1.969 1.749 1.749 0 0 0 .421-.047z"/></symbol><symbol viewBox="0 0 18 18" id="bielastico"><path data-name="Shape 5 copy 2" class="hcls-1" d="M7.4 8.42h8.334l-2.1-2.124.828-.828L18 9l-3.532 3.532-.828-.828 2.1-2.125H7.4V8.42zm3.194 1.159H2.26l2.1 2.125-.828.828L0 9l3.532-3.532.828.828-2.1 2.124h8.34v1.159zM8.42 10.6V2.266l-2.125 2.1-.827-.828L9 0l3.532 3.532-.828.828-2.125-2.1v8.34H8.42zm1.159-3.194v8.334l2.125-2.1.828.828L9 18l-3.532-3.532.827-.828 2.125 2.1V7.4h1.159z"/></symbol><symbol viewBox="0 0 16.88 11.25" id="burger"><path data-name=" copy" class="icls-1" d="M16.88 11.25V9.375H0v1.875h16.88zm0-4.687V4.688H0v1.875h16.88zM0 1.876h16.88V0H0v1.875z"/></symbol><symbol viewBox="0 0 86 122" id="chair"><path class="jst0" d="M43 31c-1.7 0-3 1.3-3 3s1.3 3 3 3 3-1.3 3-3-1.3-3-3-3zm0 5c-1.1 0-2-.9-2-2s.9-2 2-2 2 .9 2 2-.9 2-2 2z"/><path class="jst0" d="M65 0H21c-5.5 0-10 4.5-10 10v54h64V10c0-5.5-4.5-10-10-10zM12 63V10c0-5 4-9 9-9h44c5 0 9 4 9 9v53H12z"/><path class="jst1" d="M65 0H21c-5.5 0-10 4.5-10 10v54h1V10c0-5 4-9 9-9h44c5 0 9 4 9 9v54h1V10c0-5.5-4.5-10-10-10z"/><path class="jst0" d="M80 119l.1-38v-1h-13v1l1.1 39.2c.2 1.1 1 1.8 1.9 1.8H78c1.4 0 2.3-1.5 2-3zm-1.3 1.6c-.1.2-.4.4-.7.4h-7.9c-.4 0-.8-.4-.9-.9L68.1 81H79v38.2c.1.5 0 1.1-.3 1.4z"/><path class="jst1" d="M80 119l.1-38v-1h-1v1l-.1 38v.2c.1.5 0 1-.3 1.4-.1.2-.4.4-.7.4h-7.9c-.4 0-.8-.4-.9-.9L68.1 81v-1h-1v1l1.1 39.2c.2 1.1 1 1.8 1.9 1.8H78c1.4 0 2.3-1.5 2-3z"/><path class="jst0" d="M5.9 80v1l.1 38c-.3 1.5.6 3 1.9 3h7.9c.9 0 1.7-.8 1.9-1.8L18.9 81v-1h-13zm10.9 40.1c-.1.5-.5.9-.9.9h-8c-.3 0-.5-.2-.7-.4-.3-.4-.4-.9-.3-1.4V81h10.9l-1 39.1z"/><path class="jst1" d="M17.9 80v1l-1.1 39.1c-.1.5-.5.9-.9.9h-8c-.3 0-.5-.2-.7-.4-.3-.4-.4-.9-.3-1.4V80h-1v1l.1 38c-.3 1.5.6 3 1.9 3h7.9c.9 0 1.7-.8 1.9-1.8L18.9 81v-1h-1z"/><path class="jst0" d="M43 31c-1.7 0-3 1.3-3 3s1.3 3 3 3 3-1.3 3-3-1.3-3-3-3zm0 5c-1.1 0-2-.9-2-2s.9-2 2-2 2 .9 2 2-.9 2-2 2z"/><path class="jst1" d="M43 31c-1.7 0-3 1.3-3 3s1.3 3 3 3 3-1.3 3-3-1.3-3-3-3zm0 5c-1.1 0-2-.9-2-2s.9-2 2-2 2 .9 2 2-.9 2-2 2z"/><g><path class="jst0" d="M84 63H2c-1.1 0-2 .9-2 2v14c0 1.1.9 2 2 2h82c1.1 0 2-.9 2-2V65c0-1.1-.9-2-2-2zm1 16c0 .5-.5 1-1 1H2c-.5 0-1-.5-1-1V65c0-.5.5-1 1-1h82c.5 0 1 .5 1 1v14z"/><path class="jst1" d="M84 63H2c-1.1 0-2 .9-2 2v14c0 1.1.9 2 2 2h82c1.1 0 2-.9 2-2V65c0-1.1-.9-2-2-2zm1 16c0 .5-.5 1-1 1H2c-.5 0-1-.5-1-1V65c0-.5.5-1 1-1h82c.5 0 1 .5 1 1v14z"/></g></symbol><symbol viewBox="0 0 20.529 15.62" id="check"><path data-name=" copy" class="kcls-1" d="M1.652 7.47L.011 9.12l6.508 6.5 14-14-1.59-1.64L6.519 12.4z"/></symbol><symbol viewBox="0 0 612 612" id="clock"><path d="M587.572 186.881c-32.266-75.225-87.096-129.934-162.949-162.285C386.711 8.427 346.992.168 305.497.168c-41.488 0-80.914 8.181-118.784 24.428-75.225 32.265-130.298 86.939-162.621 162.285C7.895 224.629 0 264.176 0 305.664c0 41.496 7.895 81.371 24.092 119.127 32.323 75.346 87.403 130.348 162.621 162.621 37.877 16.247 77.295 24.42 118.784 24.42 41.489 0 81.214-8.259 119.12-24.42C500.47 555.06 555.3 500.009 587.573 424.791 603.819 386.914 612 347.16 612 305.664c0-41.488-8.174-80.907-24.428-118.783zm-48.848 253.972c-24.021 41.195-56.929 73.876-98.375 98.039-41.195 24.021-86.332 36.135-134.845 36.135-36.47 0-71.27-7.024-104.4-21.415-33.129-14.384-61.733-33.294-85.661-57.215-23.928-23.928-42.973-52.811-57.214-85.997-14.199-33.065-21.08-68.258-21.08-104.735 0-48.52 11.921-93.428 35.807-134.509 23.971-41.231 56.886-73.947 98.039-98.04 41.146-24.092 85.99-36.142 134.502-36.142 48.52 0 93.649 12.121 134.845 36.142 41.446 24.164 74.283 56.879 98.375 98.039 24.092 41.153 36.135 85.99 36.135 134.509 0 48.521-11.964 93.735-36.128 135.189z"/><path d="M324.906 302.988V129.659c0-10.372-9.037-18.738-19.41-18.738-9.701 0-18.403 8.366-18.403 18.738v176.005c0 .336.671 1.678.671 2.678-.671 6.024 1.007 11.043 5.019 15.062L392.836 423.45c6.695 6.695 19.073 6.695 25.763 0 7.694-7.695 7.188-18.86 0-26.099l-93.693-94.363z"/></symbol><symbol viewBox="0 0 14.031 13.969" id="close"><path data-name="" class="mcls-1" d="M12.623-.002L7 5.575 1.422-.003.015 1.403l5.579 5.579L.015 12.56l1.407 1.406L7 8.388l5.625 5.578 1.406-1.406-5.625-5.578 5.625-5.579z"/></symbol><symbol viewBox="0 0 438.536 438.536" id="inst"><path d="M421.981 16.562C410.941 5.519 397.711 0 382.298 0H56.248C40.83 0 27.604 5.521 16.561 16.562 5.52 27.6.001 40.828.001 56.243V382.29c0 15.413 5.518 28.644 16.56 39.683 11.043 11.04 24.272 16.563 39.687 16.563h326.046c15.41 0 28.644-5.523 39.684-16.563 11.043-11.039 16.557-24.27 16.557-39.683V56.243c-.001-15.418-5.514-28.639-16.554-39.681zM157.462 158.025c17.224-16.652 37.924-24.982 62.097-24.982 24.36 0 45.153 8.33 62.381 24.982 17.228 16.655 25.837 36.785 25.837 60.386 0 23.598-8.609 43.729-25.837 60.379-17.228 16.659-38.014 24.988-62.381 24.988-24.172 0-44.87-8.336-62.097-24.988-17.228-16.652-25.841-36.781-25.841-60.379 0-23.601 8.613-43.73 25.841-60.386zm231.403 212.564c0 4.945-1.718 9.083-5.141 12.416-3.433 3.33-7.519 4.996-12.282 4.996h-305.2c-4.948 0-9.091-1.666-12.419-4.996-3.333-3.326-4.998-7.471-4.998-12.416V185.575H89.08c-3.805 11.993-5.708 24.462-5.708 37.402 0 36.553 13.322 67.715 39.969 93.511 26.65 25.786 58.721 38.685 96.217 38.685 24.744 0 47.583-5.903 68.527-17.703 20.937-11.807 37.486-27.839 49.676-48.112 12.183-20.272 18.274-42.4 18.274-66.38 0-12.94-1.91-25.406-5.715-37.402h38.547V370.59h-.002zm0-254.963c0 5.52-1.903 10.184-5.716 13.99-3.805 3.809-8.466 5.711-13.989 5.711h-49.676c-5.517 0-10.185-1.903-13.99-5.711-3.806-3.806-5.708-8.47-5.708-13.99V68.522c0-5.33 1.902-9.945 5.708-13.848 3.806-3.901 8.474-5.854 13.99-5.854h49.676c5.523 0 10.185 1.952 13.989 5.854 3.812 3.903 5.716 8.518 5.716 13.848v47.104z"/></symbol><symbol viewBox="113.3 547.7 524.7 109.3" id="logo"><title>Sofateks_logo_guides</title><defs><path id="oa" d="M-31.7 305.1h841.9v595.3H-31.7z"/></defs><g class="ost0"><path class="ost1" d="M183.7 568.3c-11.3 0-19.4 11.3-23.5 28.8-4 17.5 2.4 24 10 24 10.5 0 17.8-7.6 22-24 4.2-16.4 2.9-28.8-8.5-28.8m.9 28.1c-2.6 9.3-6.1 16.6-11.1 16.3-4.7-.3-6.1-5.5-3.4-16.3 3-12 7.3-19.9 12.6-19.9s4.5 10.6 1.9 19.9"/><path class="ost1" d="M157.8 547.7c-13 0-29.7 17-36 45-5.8 25.7-4.1 46.1 13.3 46.1 7.9 0 17.5-7.3 21.7-12.1 1.1-1.3-5.2-6.6-6.2-5.9-3.9 4.4-9 9.2-15 9.2-5.1 0-8.6-13.4-2.7-36.6 5.9-23.2 15-37 23.9-37 2.5 0 .4 6.2-.6 9.5-.5 1.8-1.7 4.9-3.4 9.5l-.1.4c-.1.4-.1.8.1 1.1.4 1.5 1.8 2.6 3.3 2.8l2.1.3c1.9.4 3.8-.4 4.8-2 1.5-3.7 2.6-7.6 3.3-11.6.3-2.3 2.9-18.7-8.5-18.7m79.3 21.3c-1.7 0-3.5.3-5.2.7 2.6-10.5 4.5-17.7 4.5-17.7.5-2.4-9-2.4-9.8.6-.2.5-2 7.8-4.5 18.2-1.6-.7-3.4-1-5.1-1-9 0-18.1 8.9-21.9 25.1-3.9 16.5.1 25.8 10.8 25.8 1.6-.2 3.2-.8 4.5-1.7-3.9 15.9-7 28.8-7.4 30.2-.5 1.7-2.2 8.6.9 8.6 2.6 0 6-2.5 7-5.7.5-1.8 4.2-16.1 8.6-33.3 1.5.8 3.3 1.3 5 1.3 9.4 0 17.4-8.3 21-23.9 3.9-16.9.1-27.2-8.4-27.2m-30.4 43.1c-3.3 0-4.6-3.9-1.7-16.6 3.5-15 6.3-17.8 11.1-17.8 1.4 0 2.7.3 4 .8-2.4 9.9-5.2 21.4-7.8 32.3-1.7.8-3.7 1.3-5.6 1.3m28.7-16.7c-2.4 9.3-5.1 15.7-9.3 15.7-1.5.1-3.1 0-4.6-.1 2.9-11.2 5.9-23 8.4-33.1 2.4-.6 5.2-1.2 5.2-1.2 3.2 0 3.1 7.8.3 18.7m159.7 15.3c-.8 3.6-1.4 6.6-1.5 7-.3 1.3-1.7 2.2-5.4 2.2-4.7 0-5-1.6-4.8-3.1 1.4-8.9 7.7-35.2 9.9-41.7 1.4-4.4 3.7-6.2 8.2-6.2 3.4 0 4.1.9 4.1 2.8s-2.1 5.3-2.8 6.6c-.6 1.1-2 6.8-3.5 13.5 6.9-12 15.3-23.7 19.8-23.7 7.2 0 9.5 5.3 8.4 10.1-.8 3.5-1.5 6.7-2.3 8.8-1.1 2.9-4.6 2.5-6.4 2s-3.9-3.2-3.4-4.7c.8-2.4 1.8-4.5 1.8-4.6.4-1.1 1.2-2.9 0-2.6-2.2.6-17.7 23.3-22.1 33.6m37.5 9.9c6 1.1 13.7-3 22.1-11.2.7-.6 1.9-2.4-.8-4.8-2-1.8-3.4-1.9-4.2-1.3-10 8.4-15.5 11.4-16.4 9.3-.6-1.5-2.4-6.9.8-15.5 7-18.9 12.1-21.6 16.1-21.6.9 0 1.2.8.7 2.4-1.1 1-4.4 6.8-5.2 8.4-.9 2.1 2.4 4.2 3.9 4.7 3.2.9 4.9.8 5.4 0 2.4-4 3.9-8.5 4.4-13.1.8-5.8-3.2-9.7-8.8-9.7-7.3 0-18.6 4.3-26 26.9-4.8 14.4-1.9 23.7 8 25.5m-131.5-63.7c4.3-.7 21.1-2.3 50.5-4.9 1.5-.4 1.4 2.1 1.2 4-.2 2.1-.6 4.9-3 5-3.9.1-44.1 3.6-49.9 4.2-2.2.2-2.3-2-2.2-3.6.1-3.1 1.6-4.4 3.4-4.7m27 25c.6-2.8.9-5.1 1.2-6.9.3-2.3-4.6-6.1-9.6-6.1-3.7 0-8.9 6.6-13.8 15.3.4-2 1-4 1.7-5.9.7-1.3 2.8-4.7 2.8-6.6 0-1.9-.7-2.8-4.1-2.8-4.5 0-6.7 1.8-8.2 6.2-1.1 3.3-3.2 11.6-5.2 20.2-2.9 6-9.9 16.3-11.7 16.3-1.4 0-1.6-2-.9-4.7 2.2-7.8 9-32.4 9.4-34.4s-2-3.7-4.6-3.7-4.3 0-5.2 2.1c-1.9-1.4-4.2-2.1-6.6-2.1-12.4 0-20.3 14-23.6 27.1-4 15.5.2 24 7.8 24 3 0 7.6-4.8 13.8-14.3l-.2.8c-2.4 10.5.6 13.5 8.6 13.5 2.8 0 6.4-4.2 9.8-9.2-.5 2.5-.9 4.7-1.2 6.3-.3 1.6.1 3.1 4.8 3.1 3.7 0 5.1-.9 5.4-2.2.1-.4.7-3.2 1.3-6.4 7-21.3 15.1-33.3 18.2-33.3 2.5 0 .2 8.5-9.2 39.2-.6 2 3 2.6 5.1 2.6 2.3 0 4 .3 4.7-1.9 1.1-3.9 2.2-7.6 3.1-11 4.6-11.6 12.7-28.8 17.4-28.8 3.2 0-4 18.3-7.9 28.2-3.2 8.3 1.2 13.5 7.3 13.5 4.7-1.2 9.2-3.4 12.9-6.5 1.8 4.3 5.2 7.4 11.2 7.4 11.8 0 18.8-12.6 22.6-27.4 1.7-6.4 2.5-25.4-10.3-25.4-9.4 0-14.5 7.1-14.5 10 0 1.1.4 2 2.3 2.5 2.7.7 4-.1 4.3-.8 1.3-2.7 2.8-5.4 7-5.4 3.4 0 3.5 6.4 2.3 13.4-3.2-.2-6.4-.3-9.6-.2-.9-.1-1.7 0-2.6.2-1.6.6-2.6 2.3-2.5 4-.2 2.6 1.6 4.9 4.1 5.3.2 0 4.6-.4 8.5-.6-2.1 6.7-6.4 16.8-11.5 16.8-3.4 0-5.5-4.6-5.1-5.1 1.8-2 3-5.4 3.8-10 .5-1.6-.4-3.6-3.2-4.5-4.2-1.3-6.2-.1-6.7 1.3-1.1 3.1-1.6 6.4-1.6 9.7-1.5 1.3-3.1 2.4-4.9 3.3-1.4.8-2.8 1.4-4.3 1.9-.3 0-.4-.6-.1-1.8 1.2-4.9 6.7-19.3 9.4-32.6.5-2.8-5.1-6.7-8.4-6.7-4.5.2-9.3 5.9-13.5 13.1m-50.4-3.1c-.7 2.6-1.5 6-2.3 9.3-8.3 15.5-14 23.3-17.1 23.3-1.6 0-1.2-4.1 1.3-13.4 3.3-11.9 7.4-21.7 13.5-21.7 1.6.1 3.4 1.2 4.6 2.5"/><path class="ost1" d="M451.1 626.9c-3 0-18.3-.1-36.8-.1.1-.7.3-1.3.5-2 4-15 6.8-25.3 6.2-26.2s-3.7-3.7-4.6-3.9c-2.2-.5-8.7 1-11.1 1.6-1.2.4-1.1 8.2 0 8 3.1-.8 8.7-2.6 7.4.3-2.8 6.1-4.8 12.6-6 19.3-.1 1-.3 2-.4 2.9-28.7-.1-62.2-.1-71.8.1-17 .5-98.7 2.2-103.2 2.8-2.3.3-10.1 9.5-6.9 9.3 5.5-.4 70.9-3.3 105.8-4.2 18.4-.5 50.1-1 76-1.3 1.1 15.9 12.6 22.4 23.8 22.4 9 0 23.2-11.7 26.2-23.1.7-2.3-2.4-5.9-5.1-5.9m-19.8 20.9c-9.7.1-16.8-5-17.5-14.4 19.5-.2 34.1-.1 33.9.3-.4.9-4.1 13.9-16.4 14.1m-267.9-16.3c-5.4 1.4-5.6 3.1-6.6 7.4-1.1 4.6.3 4.8 4.5 4.3 1.8-.2 33.9-3.5 35.3-3.7 2.9-.4 5.9-9 3.2-8.9-.2.1-30.8-.5-36.4.9m390.1-18.7l1.3 16.7H550l-.2-5.3c0-1-.1-1.8-.1-2.2 0-1.3.1-2.8.2-4.2l-2.2 10.3h-4.2l-2.2-10.3c.1 1.3.2 2.7.2 4.1v2.3l-.2 5.3h-4.8l1.3-16.7h6l1.9 10.4 1.9-10.4h5.9zm17.3 8c0 .1 0 .8-.1 1.9h-9.4c0 1 .4 1.9 1 2.6.6.6 1.4.8 2.3.7.6 0 1.1-.1 1.8-.3.6-.3 1.2-.7 1.9-1.1l2.1 3c-.8.8-1.8 1.3-2.8 1.8-1 .4-2.3.7-3.4.7-2.2.2-4.4-.7-6-2.3-1.4-1.8-2.2-4-2.1-6.5 0-1.6.3-3.1.8-4.6.5-1.3 1.4-2.5 2.6-3.2 1.2-.8 2.6-1.2 4-1.2 2-.1 3.9.7 5.4 2.2 1.3 1.8 2 4 1.9 6.3m-5.1-1.3v-.2c0-.9-.1-1.8-.5-2.6-.3-.7-1-1-1.6-.9-.6 0-1.2.2-1.6.8-.4.9-.7 1.9-.7 2.8h4.5v.1zm15.7-5.6c1 0 2.1.3 2.9.9.9.7 1.6 1.6 2.1 2.7.5 1.3.8 2.8.7 4.2 0 1.6-.3 3-.9 4.3-.6 1.2-1.5 2.2-2.6 2.9-1.2.7-2.6 1-3.9 1-2.1.1-4.1-.8-5.6-2.5-1.3-1.7-2.1-4.1-2.1-7.5 0-2 .1-4 .6-5.9.3-1.4 1-2.8 2-3.8 1.1-1.1 2.5-1.9 3.9-2.3.9-.3 1.9-.7 2.7-1 .7-.3 1.5-.8 2.5-1.3l1.9 3.5c-.7.4-1.4.9-2.2 1.2-.7.3-1.6.7-2.9 1.1-.7.2-1.3.6-2 1-.5.3-.9.9-1.1 1.6-.3.8-.5 1.7-.5 2.6.5-.8 1.1-1.4 1.9-1.9.7-.5 1.7-.8 2.6-.8m-1.9 12.1c.7 0 1.3-.3 1.6-.9.4-1 .6-2.1.6-3.1.1-1-.1-2.1-.5-3-.3-.6-.9-.9-1.5-.8-.5 0-1 .1-1.4.4-.4.3-.8.8-1 1.2v2.2c0 2.6.7 4 2.2 4m23.8-5.2c0 .1 0 .8-.1 1.9h-9.4c0 1 .4 1.9 1 2.6.6.6 1.4.8 2.3.7.6 0 1.1-.1 1.8-.3.6-.3 1.2-.7 1.9-1.1l2.1 3c-.8.8-1.8 1.3-2.8 1.7-1 .4-2.3.7-3.4.7-2.2.2-4.4-.7-6-2.3-1.4-1.8-2.2-4-2.1-6.5 0-1.6.3-3.1.8-4.6.5-1.3 1.4-2.5 2.6-3.2 1.2-.8 2.6-1.2 4-1.2 2-.1 3.9.7 5.4 2.2 1.3 1.9 2 4.1 1.9 6.4m-5.1-1.3v-.2c0-.9-.1-1.8-.5-2.6-.3-.7-1-1-1.6-.9-.6 0-1.2.2-1.6.8-.4.9-.7 1.9-.7 2.8 0 .1 4.4.1 4.4.1zm8.6-6.7h12.1v16.7h-5.2v-12.7h-2.4l-.2 3c-.1 1.9-.4 3.8-.7 5.6-.2 1.1-.8 2.1-1.5 2.9-1 .8-2.2 1.3-3.4 1.6l-1.2-4c.5-.2.9-.6 1.3-1 .3-.4.5-1 .6-1.6.1-.8.2-2 .3-3.8l.3-6.7zm28.9 0v16.7h-4.8V624c0-2 .2-4 .7-5.9l-4.7 11.4h-5.1v-16.7h4.8v5.6c0 2-.2 4-.7 5.9l4.6-11.5h5.2zm-140.6 12.7h1.6v9.4h-3.4l-.5-5.2h-8l-.5 5.3h-3.4v-9.4h.9c.3-.2.6-.6.8-1 .3-.7.5-1.3.6-2.1.2-1.3.4-2.7.5-4l.4-5.5h11.2l-.2 12.5zm-4.7 0v-9h-2.1l-.1 1.4c-.1 1.8-.4 3.6-.9 5.2-.3 1-1 1.9-1.9 2.3h5v.1zm9.2-12.7h12.1v16.7h-5.2v-12.7h-2.4l-.2 3c-.1 1.9-.4 3.8-.7 5.6-.2 1.1-.8 2.1-1.5 2.9-1 .8-2.2 1.3-3.4 1.6l-1.2-4c.5-.2.9-.6 1.3-1 .3-.4.5-1 .6-1.6.1-.8.2-2 .4-3.8l.2-6.7zm22.1 0h6.1v16.7h-5.2V624h-1.5l-2.7 5.6h-5.5l3.5-6.9c-.7-.4-1.2-1-1.6-1.7-.4-.8-.6-1.6-.6-2.5-.1-1.7.6-3.2 1.9-4.1 1.8-1.1 3.6-1.6 5.6-1.6m-.1 7.9h1v-4.3h-1c-.6 0-1.2.1-1.6.6-.4.4-.6 1-.5 1.6 0 .6.2 1.2.5 1.7.4.3 1 .5 1.6.4m-32.4-45.9c2.1-.1 4.1.7 5.7 2.3 1.4 1.8 2.2 4.1 2.1 6.6 0 1.7-.3 3.2-.9 4.7-.6 1.3-1.5 2.3-2.7 3.1-1.2.8-2.7 1.1-4.1 1.1-2.1.1-4.1-.7-5.7-2.3-1.4-1.8-2.2-4.1-2.1-6.6 0-1.7.3-3.2.9-4.7.6-1.3 1.5-2.3 2.7-3.1 1.2-.7 2.7-1.1 4.1-1.1m0 4c-.7 0-1.4.3-1.9 1.1-.4 1.1-.6 2.5-.6 3.7-.1 1.2.1 2.6.6 3.7s1.8 1.6 2.8 1c.4-.2.7-.6.9-1 .4-1.1.6-2.5.6-3.7.1-1.2-.1-2.6-.6-3.7-.3-.6-1.1-1.1-1.8-1.1m22.8 9.3h1.6v9.4h-3.4l-.5-5.3h-8l-.5 5.3h-3.4v-9.4h.9c.3-.2.6-.6.8-1 .3-.7.5-1.3.6-2.1.2-1.3.4-2.7.5-4l.4-5.5h11.2l-.2 12.6zm-4.7 0v-9h-2.1l-.1 1.4c-.1 1.8-.4 3.6-.9 5.2-.3 1-1 1.9-1.9 2.3h5v.1zm21.8-4.6c0 .1 0 .8-.1 1.9h-9.4c0 1 .4 1.9 1 2.6.6.6 1.4.8 2.3.7.6 0 1.1-.1 1.8-.3.6-.3 1.2-.7 1.9-1.1l2.1 3c-.8.8-1.8 1.3-2.8 1.8s-2.3.7-3.4.7c-2.2.2-4.4-.7-6-2.3-1.4-1.8-2.2-4-2.1-6.5 0-1.6.3-3.1.8-4.6.5-1.3 1.3-2.5 2.5-3.2 1.2-.8 2.6-1.2 4-1.2 2-.1 3.9.7 5.4 2.2 1.4 1.6 2.1 4 2 6.3m-5-1.4v-.1c0-.9-.1-1.8-.5-2.6-.3-.7-1-1-1.6-.9-.6 0-1.2.2-1.6.8-.4.9-.7 1.9-.7 2.8h4.4zm22.8-6.7h4.7l-3.5 7.7 3.7 8.9h-5.2l-2.6-6.9h-1.2v6.9h-4.4v-6.9h-1l-2.6 6.9h-5.2l3.7-8.9-3.4-7.7h4.8l2.6 6.5h1.2v-6.5h4.4v6.5h1.2l2.8-6.5zm19.3 12.7h1.6v9.4h-3.4l-.5-5.3h-8l-.5 5.3h-3.6v-9.4h.9c.3-.2.6-.6.8-1 .3-.7.5-1.3.6-2.1.2-1.3.4-2.7.5-4l.4-5.5h11.1v12.6zm-4.7 0v-9h-2.1l-.1 1.4c-.1 1.8-.4 3.6-.9 5.2-.3 1-1 1.9-1.9 2.3h5v.1zm20.6-1.1c0 .4 0 .9.2 1.3.2.3.4.6.7.7l-1 3.6c-.8 0-1.6-.2-2.4-.7-.6-.3-1.1-1-1.5-1.7-1 1.7-2.8 2.6-4.6 2.5-1.3.1-2.7-.4-3.6-1.4-.9-1-1.4-2.3-1.3-3.8-.1-1.7.6-3.2 2-4.2 1.6-1.1 3.5-1.6 5.5-1.4h1.3v-.6c.1-.7-.1-1.3-.5-1.8-.5-.3-1.2-.6-1.9-.4-.6 0-1.2.1-1.9.2s-1.4.3-2.2.7l-1.1-3.6c.9-.4 2-.8 3-1 .9-.2 2-.3 3-.3 2.3 0 4 .4 5.1 1.4 1.1 1.2 1.8 2.9 1.5 4.6l-.3 5.9zm-7.1 1.8c.4 0 .8-.1 1.1-.3.3-.2.6-.6.8-1v-2.7h-.8c-.7-.1-1.4.1-2.1.6-.4.4-.7 1-.6 1.7 0 .4.1 1 .4 1.3.4.1.8.4 1.2.4"/></g></symbol><symbol viewBox="0 0 512 512" id="map"><path d="M256 0C153.755 0 70.573 83.182 70.573 185.426c0 126.888 165.939 313.167 173.004 321.035 6.636 7.391 18.222 7.378 24.846 0 7.065-7.868 173.004-194.147 173.004-321.035C441.425 83.182 358.244 0 256 0zm0 278.719c-51.442 0-93.292-41.851-93.292-93.293S204.559 92.134 256 92.134s93.291 41.851 93.291 93.293-41.85 93.292-93.291 93.292z"/></symbol><symbol viewBox="0 0 18 9.75" id="monolastic"><path class="qcls-1" d="M9.257 4.104l5.554-.031-2.955-2.939 1.167-1.145L18 4.875l-4.977 4.886-1.167-1.145 2.955-2.94-5.554-.03V4.104zm0 1.542l-6.069.03 2.956 2.94-1.167 1.145L0 4.875 4.977-.011l1.167 1.145-2.956 2.939 6.069.031v1.542z"/></symbol><symbol viewBox="0 0 533.333 533.334" id="name"><path d="M133.333 166.667c0 73.638 59.696 133.333 133.333 133.333C340.304 300 400 240.304 400 166.667S340.305 33.334 266.667 33.334c-73.638-.001-133.334 59.695-133.334 133.333zM400 333.333H133.333C59.696 333.333 0 393.029 0 466.667V500h533.333v-33.333c0-73.638-59.696-133.334-133.333-133.334z"/></symbol><symbol viewBox="0 0 512.008 512.008" id="ok"><path d="M256.002 0c-70.592 0-128 57.408-128 128s57.408 128 128 128 128-57.408 128-128-57.408-128-128-128zm0 192c-35.296 0-64-28.704-64-64s28.704-64 64-64 64 28.704 64 64-28.704 64-64 64z"/><path d="M425.73 252.448c-12.512-12.512-32.736-12.512-45.248 0-68.608 68.608-180.288 68.608-248.928 0-12.512-12.512-32.736-12.512-45.248 0s-12.512 32.736 0 45.28c39.808 39.808 90.272 62.496 142.304 68.416l-91.232 91.232c-12.512 12.512-12.512 32.736 0 45.248s32.736 12.512 45.248 0l73.376-73.376 73.376 73.376A31.912 31.912 0 0 0 352.002 512a31.912 31.912 0 0 0 22.624-9.376c12.512-12.512 12.512-32.736 0-45.248l-91.232-91.232c52.032-5.92 102.496-28.608 142.304-68.416 12.512-12.512 12.512-32.768.032-45.28z"/></symbol><symbol viewBox="0 0 15 15" id="phone"><path data-name="" class="tcls-1" d="M4.84 4.64a.8.8 0 0 0 .2-.859A9.343 9.343 0 0 1 4.571.812a.815.815 0 0 0-.234-.566.766.766 0 0 0-.586-.254H.821a.872.872 0 0 0-.82.82 14.116 14.116 0 0 0 14.18 14.18.872.872 0 0 0 .82-.82v-2.93a.764.764 0 0 0-.254-.586.817.817 0 0 0-.566-.234 9.338 9.338 0 0 1-2.969-.469.716.716 0 0 0-.859.195l-1.836 1.836a12.25 12.25 0 0 1-5.508-5.508z"/></symbol><symbol preserveAspectRatio="xMidYMid" viewBox="0 0 14 14" id="search"><path d="M8.827 9.39l-.225-.226a5.079 5.079 0 0 1-3.381 1.24c-1.452 0-2.686-.507-3.7-1.521C.507 7.868 0 6.641 0 5.201s.507-2.667 1.521-3.682C2.535.505 3.763-.002 5.202-.002c1.44 0 2.667.507 3.681 1.521 1.014 1.015 1.522 2.248 1.522 3.701a5.084 5.084 0 0 1-1.24 3.381l.225.225h.639l3.981 3.982-1.202 1.202-3.981-3.982V9.39zM5.221 1.613c-1.001 0-1.853.351-2.554 1.052-.701.701-1.052 1.553-1.052 2.555 0 1.001.351 1.853 1.052 2.554.701.701 1.553 1.052 2.554 1.052 1.002 0 1.853-.351 2.554-1.052.702-.701 1.052-1.553 1.052-2.554 0-1.002-.35-1.854-1.052-2.555-.701-.701-1.552-1.052-2.554-1.052z" class="ucls-1"/></symbol><symbol viewBox="0 0 11.156 10.625" id="star"><path class="vcls-1" d="M10.778 3.804l-3.361-.488L5.91.269a.333.333 0 0 0-.656 0L3.75 3.316l-3.361.488a.349.349 0 0 0-.375.308.509.509 0 0 0 .167.322l2.438 2.37-.579 3.352a1.1 1.1 0 0 0-.014.133.4.4 0 0 0 .07.238.244.244 0 0 0 .211.1.561.561 0 0 0 .268-.08l3.007-1.581 3.007 1.581a.535.535 0 0 0 .268.08.236.236 0 0 0 .2-.1.394.394 0 0 0 .07-.238.9.9 0 0 0-.007-.133l-.575-3.349 2.43-2.37a.484.484 0 0 0 .174-.322.349.349 0 0 0-.375-.308z"/></symbol><symbol viewBox="0 0 548.358 548.358" id="vk"><path d="M545.451 400.298c-.664-1.431-1.283-2.618-1.858-3.569-9.514-17.135-27.695-38.167-54.532-63.102l-.567-.571-.284-.28-.287-.287h-.288c-12.18-11.611-19.893-19.418-23.123-23.415-5.91-7.614-7.234-15.321-4.004-23.13 2.282-5.9 10.854-18.36 25.696-37.397 7.807-10.089 13.99-18.175 18.556-24.267 32.931-43.78 47.208-71.756 42.828-83.939l-1.701-2.847c-1.143-1.714-4.093-3.282-8.846-4.712-4.764-1.427-10.853-1.663-18.278-.712l-82.224.568c-1.332-.472-3.234-.428-5.712.144l-3.713.859-1.431.715-1.136.859c-.952.568-1.999 1.567-3.142 2.995-1.137 1.423-2.088 3.093-2.848 4.996-8.952 23.031-19.13 44.444-30.553 64.238-7.043 11.803-13.511 22.032-19.418 30.693-5.899 8.658-10.848 15.037-14.842 19.126-4 4.093-7.61 7.372-10.852 9.849-3.237 2.478-5.708 3.525-7.419 3.142-1.715-.383-3.33-.763-4.859-1.143-2.663-1.714-4.805-4.045-6.42-6.995-1.622-2.95-2.714-6.663-3.285-11.136-.568-4.476-.904-8.326-1-11.563-.089-3.233-.048-7.806.145-13.706.198-5.903.287-9.897.287-11.991 0-7.234.141-15.085.424-23.555.288-8.47.521-15.181.716-20.125.194-4.949.284-10.185.284-15.705s-.336-9.849-1-12.991a44.442 44.442 0 0 0-2.99-9.137c-1.335-2.95-3.289-5.232-5.853-6.852-2.569-1.618-5.763-2.902-9.564-3.856-10.089-2.283-22.936-3.518-38.547-3.71-35.401-.38-58.148 1.906-68.236 6.855-3.997 2.091-7.614 4.948-10.848 8.562-3.427 4.189-3.905 6.475-1.431 6.851 11.422 1.711 19.508 5.804 24.267 12.275l1.715 3.429c1.334 2.474 2.666 6.854 3.999 13.134 1.331 6.28 2.19 13.227 2.568 20.837.95 13.897.95 25.793 0 35.689-.953 9.9-1.853 17.607-2.712 23.127-.859 5.52-2.143 9.993-3.855 13.418-1.715 3.426-2.856 5.52-3.428 6.28-.571.76-1.047 1.239-1.425 1.427a21.387 21.387 0 0 1-7.71 1.431c-2.667 0-5.901-1.334-9.707-4-3.805-2.666-7.754-6.328-11.847-10.992-4.093-4.665-8.709-11.184-13.85-19.558-5.137-8.374-10.467-18.271-15.987-29.691l-4.567-8.282c-2.855-5.328-6.755-13.086-11.704-23.267-4.952-10.185-9.329-20.037-13.134-29.554-1.521-3.997-3.806-7.04-6.851-9.134l-1.429-.859c-.95-.76-2.475-1.567-4.567-2.427a30.301 30.301 0 0 0-6.567-1.854l-78.229.568c-7.994 0-13.418 1.811-16.274 5.428l-1.143 1.711c-.571.953-.859 2.475-.859 4.57 0 2.094.571 4.664 1.714 7.707 11.42 26.84 23.839 52.725 37.257 77.659 13.418 24.934 25.078 45.019 34.973 60.237 9.897 15.229 19.985 29.602 30.264 43.112 10.279 13.515 17.083 22.176 20.412 25.981 3.333 3.812 5.951 6.662 7.854 8.565l7.139 6.851c4.568 4.569 11.276 10.041 20.127 16.416 8.853 6.379 18.654 12.659 29.408 18.85 10.756 6.181 23.269 11.225 37.546 15.126 14.275 3.905 28.169 5.472 41.684 4.716h32.834c6.659-.575 11.704-2.669 15.133-6.283l1.136-1.431c.764-1.136 1.479-2.901 2.139-5.276.668-2.379 1-5 1-7.851-.195-8.183.428-15.558 1.852-22.124 1.423-6.564 3.045-11.513 4.859-14.846 1.813-3.33 3.859-6.14 6.136-8.418 2.282-2.283 3.908-3.666 4.862-4.142.948-.479 1.705-.804 2.276-.999 4.568-1.522 9.944-.048 16.136 4.429 6.187 4.473 11.99 9.996 17.418 16.56 5.425 6.57 11.943 13.941 19.555 22.124 7.617 8.186 14.277 14.271 19.985 18.274l5.708 3.426c3.812 2.286 8.761 4.38 14.853 6.283 6.081 1.902 11.409 2.378 15.984 1.427l73.087-1.14c7.229 0 12.854-1.197 16.844-3.572 3.998-2.379 6.373-5 7.139-7.851.764-2.854.805-6.092.145-9.712-.677-3.611-1.344-6.136-2.008-7.563z"/></symbol></svg>